<svg xmlns="http://www.w3.org/2000/svg" xmlns:xlink="http://www.w3.org/1999/xlink" width="1366" zoomAndPan="magnify" viewBox="0 0 1024.5 576" height="768" preserveAspectRatio="xMidYMid meet" version="1.0"><defs><clipPath id="6eb7627989"><path d="M 0 0.140625 L 1024 0.140625 L 1024 575.859375 L 0 575.859375 Z M 0 0.140625 " clip-rule="nonzero"/></clipPath><clipPath id="90ebdfa9d0"><path d="M 380 57.710938 L 698 57.710938 L 698 486 L 380 486 Z M 380 57.710938 " clip-rule="nonzero"/></clipPath><clipPath id="c87308220d"><path d="M 376 499 L 405 499 L 405 561.464844 L 376 561.464844 Z M 376 499 " clip-rule="nonzero"/></clipPath></defs><g clip-path="url(#6eb7627989)"><path fill="#ffffff" d="M 0 0.140625 L 1024 0.140625 L 1024 575.859375 L 0 575.859375 Z M 0 0.140625 " fill-opacity="1" fill-rule="nonzero"/><path fill="#ffffff" d="M 0 0.140625 L 1024 0.140625 L 1024 575.859375 L 0 575.859375 Z M 0 0.140625 " fill-opacity="1" fill-rule="nonzero"/></g><g clip-path="url(#90ebdfa9d0)"><path fill="#a7ddea" d="M 650.308594 57.710938 L 697.792969 90.308594 L 426.65625 485.550781 L 380.433594 451.0625 Z M 650.308594 57.710938 " fill-opacity="1" fill-rule="nonzero"/></g><path fill="#281c22" d="M 443.359375 461.15625 L 442.726562 462 C 433.902344 456.109375 425.183594 450.117188 416.464844 444.019531 C 415.9375 443.597656 416.464844 442.757812 417.09375 443.175781 C 425.8125 449.277344 434.535156 455.269531 443.359375 461.15625 Z M 456.804688 418.890625 C 456.277344 418.46875 455.648438 419.414062 456.175781 419.730469 C 459.640625 422.253906 463.210938 424.671875 466.679688 426.984375 L 467.308594 426.144531 C 463.84375 423.832031 460.269531 421.414062 456.804688 418.890625 Z M 462.6875 372.308594 C 462.058594 371.886719 461.53125 372.835938 462.058594 373.148438 C 471.722656 379.355469 481.386719 385.453125 491.050781 391.65625 L 491.683594 390.816406 C 482.015625 384.609375 472.351562 378.40625 462.6875 372.308594 Z M 604.296875 165.59375 C 603.773438 165.171875 603.140625 166.117188 603.667969 166.433594 C 613.015625 173.058594 622.578125 179.578125 632.136719 185.886719 L 632.765625 185.042969 C 623.207031 178.734375 613.753906 172.214844 604.296875 165.59375 Z M 644.636719 141.828125 C 644.113281 141.410156 643.480469 142.355469 644.007812 142.671875 C 648 145.507812 651.992188 148.242188 656.089844 150.976562 L 656.71875 150.136719 C 652.726562 147.402344 648.628906 144.5625 644.636719 141.828125 Z M 649.785156 94.617188 C 649.15625 94.199219 648.628906 95.144531 649.15625 95.460938 C 659.554688 102.085938 669.957031 108.8125 680.460938 115.4375 L 681.089844 114.597656 C 670.691406 107.972656 660.289062 101.242188 649.785156 94.617188 Z M 659.660156 125.847656 C 659.136719 125.425781 658.503906 126.371094 659.03125 126.6875 C 662.179688 128.894531 665.332031 130.894531 668.484375 132.890625 L 669.113281 132.050781 C 665.859375 130.054688 662.707031 127.949219 659.660156 125.847656 Z M 635.5 162.648438 C 638.335938 164.644531 641.171875 166.75 644.007812 168.746094 L 644.636719 167.90625 C 641.800781 165.90625 638.964844 163.804688 636.128906 161.808594 C 635.601562 161.28125 634.972656 162.226562 635.5 162.648438 Z M 472.140625 402.589844 C 471.511719 402.171875 470.988281 403.117188 471.511719 403.433594 C 474.136719 405.113281 476.660156 406.902344 479.285156 408.585938 L 479.914062 407.742188 C 477.394531 406.0625 474.769531 404.378906 472.140625 402.589844 Z M 446.929688 439.183594 C 446.300781 438.867188 445.773438 439.707031 446.300781 440.023438 C 449.03125 441.601562 451.761719 443.28125 454.492188 444.859375 L 455.125 444.019531 C 452.390625 442.441406 449.660156 440.757812 446.929688 439.183594 Z M 446.929688 439.183594 " fill-opacity="1" fill-rule="nonzero"/><path fill="#f2da66" d="M 570.472656 190.933594 C 570.261719 190.722656 569.945312 190.40625 569.734375 190.195312 C 560.699219 181.574219 550.617188 174.320312 539.902344 168.535156 C 539.585938 168.324219 539.269531 168.222656 538.957031 168.011719 C 528.871094 162.648438 518.15625 158.546875 507.125 155.8125 C 506.808594 155.707031 506.390625 155.601562 506.074219 155.601562 C 493.992188 152.660156 481.492188 151.398438 468.886719 151.816406 C 468.570312 151.816406 468.148438 151.816406 467.835938 151.816406 C 456.070312 152.238281 444.304688 154.238281 432.746094 157.8125 C 432.433594 157.917969 432.117188 158.023438 431.695312 158.125 C 421.820312 161.175781 412.050781 165.488281 402.703125 170.953125 C 402.386719 171.164062 402.074219 171.269531 401.757812 171.480469 C 392.511719 177.054688 384.109375 183.46875 376.648438 190.617188 C 376.335938 190.828125 376.125 191.144531 375.914062 191.351562 C 367.300781 199.765625 359.945312 209.121094 353.855469 219.113281 C 353.644531 219.425781 353.433594 219.742188 353.328125 220.058594 C 346.921875 230.886719 341.984375 242.453125 338.726562 254.441406 C 338.621094 254.757812 338.515625 255.175781 338.410156 255.492188 C 335.46875 266.53125 333.894531 277.886719 333.683594 289.347656 C 333.683594 289.664062 333.683594 290.085938 333.683594 290.398438 C 333.578125 302.703125 335.050781 315.214844 338.304688 327.410156 C 338.410156 327.726562 338.515625 328.148438 338.621094 328.464844 C 341.351562 338.347656 345.132812 348.125 350.175781 357.589844 C 351.859375 360.742188 355.847656 361.898438 359 360.113281 L 587.699219 223.421875 C 590.957031 221.425781 591.902344 217.113281 589.800781 213.960938 C 584.023438 205.546875 577.507812 197.765625 570.472656 190.933594 Z M 384.632812 303.019531 C 365.304688 270.632812 384.003906 230.257812 422.871094 207.125 C 461.742188 183.886719 506.074219 186.515625 525.402344 218.902344 Z M 384.632812 303.019531 " fill-opacity="1" fill-rule="nonzero"/><path fill="#281c22" d="M 418.355469 197.554688 C 418.671875 198.1875 417.726562 198.714844 417.410156 198.082031 C 412.261719 189.144531 407.011719 180.3125 401.652344 171.480469 C 401.96875 171.269531 402.28125 171.058594 402.597656 170.953125 C 407.957031 179.785156 413.207031 188.722656 418.355469 197.554688 Z M 376.542969 190.722656 C 376.230469 190.933594 376.019531 191.246094 375.808594 191.457031 C 380.851562 197.871094 385.894531 204.285156 391.042969 210.59375 C 391.460938 211.121094 392.199219 210.382812 391.777344 209.753906 C 386.734375 203.550781 381.585938 197.136719 376.542969 190.722656 Z M 369.714844 232.042969 C 364.464844 227.734375 359.105469 223.527344 353.75 219.214844 C 353.539062 219.53125 353.328125 219.847656 353.222656 220.164062 C 358.476562 224.367188 363.726562 228.574219 368.980469 232.78125 C 369.507812 233.304688 370.242188 232.570312 369.714844 232.042969 Z M 356.796875 260.960938 C 350.703125 258.855469 344.714844 256.753906 338.621094 254.652344 C 338.515625 254.964844 338.410156 255.386719 338.304688 255.703125 C 344.398438 257.804688 350.386719 259.90625 356.480469 262.011719 C 357.109375 262.222656 357.425781 261.167969 356.796875 260.960938 Z M 350.703125 289.875 C 345.027344 289.769531 339.355469 289.558594 333.578125 289.453125 C 333.578125 289.769531 333.578125 290.191406 333.578125 290.503906 C 339.25 290.609375 345.027344 290.820312 350.703125 290.925781 C 351.332031 291.03125 351.332031 289.980469 350.703125 289.875 Z M 357.320312 322.996094 C 350.910156 324.679688 344.609375 326.148438 338.199219 327.621094 C 338.304688 327.9375 338.410156 328.359375 338.515625 328.671875 C 344.925781 327.304688 351.332031 325.730469 357.742188 324.046875 C 358.371094 323.835938 358.054688 322.785156 357.320312 322.996094 Z M 431.59375 158.125 C 434.953125 165.800781 438.210938 173.476562 441.46875 181.152344 C 441.78125 181.785156 442.832031 181.46875 442.515625 180.839844 C 439.261719 173.164062 436.003906 165.488281 432.640625 157.8125 C 432.328125 157.917969 432.011719 158.023438 431.59375 158.125 Z M 467.730469 151.921875 C 468.992188 158.652344 470.25 165.488281 471.511719 172.214844 C 471.617188 172.953125 472.667969 172.636719 472.5625 171.902344 C 471.300781 165.171875 470.042969 158.546875 468.886719 151.816406 C 468.464844 151.816406 468.046875 151.921875 467.730469 151.921875 Z M 505.96875 155.707031 C 504.917969 162.015625 503.972656 168.222656 502.921875 174.53125 C 502.816406 175.160156 503.867188 175.476562 503.972656 174.84375 C 505.023438 168.535156 505.96875 162.332031 507.019531 156.023438 C 506.703125 155.8125 506.390625 155.707031 505.96875 155.707031 Z M 538.851562 168.117188 C 536.328125 173.058594 533.808594 178 531.390625 182.835938 C 531.078125 183.46875 532.023438 183.992188 532.335938 183.363281 C 534.859375 178.421875 537.378906 173.476562 539.796875 168.535156 C 539.480469 168.429688 539.164062 168.222656 538.851562 168.117188 Z M 569.628906 190.195312 C 565.429688 194.71875 561.121094 199.132812 556.8125 203.761719 C 556.394531 204.285156 557.128906 205.023438 557.65625 204.496094 C 561.855469 199.976562 566.269531 195.558594 570.472656 190.933594 C 570.15625 190.722656 569.945312 190.40625 569.628906 190.195312 Z M 569.628906 190.195312 " fill-opacity="1" fill-rule="nonzero"/><path fill="#e87b69" d="M 748.324219 197.136719 L 701.574219 463.261719 C 700.105469 471.882812 691.804688 477.664062 683.296875 476.089844 L 489.054688 441.914062 C 480.441406 440.445312 474.664062 432.136719 476.238281 423.621094 L 522.988281 157.496094 C 524.457031 148.875 532.757812 143.089844 541.265625 144.667969 L 735.507812 178.839844 C 744.121094 180.3125 749.792969 188.515625 748.324219 197.136719 Z M 748.324219 197.136719 " fill-opacity="1" fill-rule="nonzero"/><path fill="#d15081" d="M 661.761719 364.738281 L 691.492188 369.996094 C 694.011719 370.417969 695.691406 372.835938 695.273438 375.359375 L 683.191406 443.492188 C 682.773438 446.015625 680.355469 447.699219 677.835938 447.277344 L 648.105469 442.019531 C 645.582031 441.601562 643.902344 439.183594 644.324219 436.660156 L 656.296875 368.523438 C 656.824219 366 659.238281 364.316406 661.761719 364.738281 Z M 661.761719 364.738281 " fill-opacity="1" fill-rule="nonzero"/><path fill="#f2da66" d="M 531.707031 248.761719 L 560.175781 253.808594 C 563.011719 254.335938 564.902344 257.070312 564.484375 259.90625 L 560.386719 283.355469 C 559.859375 286.195312 557.128906 288.085938 554.292969 287.667969 L 525.824219 282.621094 C 522.988281 282.09375 521.097656 279.359375 521.515625 276.519531 L 525.613281 253.074219 C 526.140625 250.234375 528.871094 248.34375 531.707031 248.761719 Z M 574.988281 261.378906 L 570.679688 285.667969 C 570.261719 288.296875 571.941406 290.820312 574.566406 291.242188 L 603.878906 296.394531 C 606.503906 296.8125 609.023438 295.132812 609.445312 292.503906 L 613.753906 268.214844 C 614.171875 265.585938 612.492188 263.0625 609.867188 262.640625 L 580.554688 257.488281 C 577.929688 256.964844 575.410156 258.75 574.988281 261.378906 Z M 623.523438 271.054688 L 619.636719 293.027344 C 619.109375 296.289062 621.210938 299.441406 624.46875 299.96875 L 651.464844 304.699219 C 654.722656 305.226562 657.875 303.121094 658.398438 299.863281 L 662.285156 277.886719 C 662.8125 274.628906 660.710938 271.472656 657.453125 270.949219 L 630.457031 266.214844 C 627.199219 265.585938 624.046875 267.792969 623.523438 271.054688 Z M 671.949219 279.675781 L 668.0625 301.652344 C 667.539062 304.910156 669.640625 308.066406 673 308.589844 L 700 313.320312 C 703.257812 313.847656 706.410156 311.746094 706.933594 308.378906 L 710.820312 286.40625 C 711.347656 283.144531 709.246094 279.992188 705.882812 279.464844 L 678.882812 274.734375 C 675.628906 274.207031 672.582031 276.3125 671.949219 279.675781 Z M 517.417969 299.757812 L 513.21875 323.417969 C 512.691406 326.253906 514.582031 328.882812 517.417969 329.410156 L 546.203125 334.457031 C 549.039062 334.980469 551.667969 333.089844 552.191406 330.25 L 556.394531 306.59375 C 556.917969 303.753906 555.027344 301.125 552.191406 300.597656 L 523.40625 295.550781 C 520.570312 295.027344 517.945312 296.917969 517.417969 299.757812 Z M 566.6875 308.695312 L 562.59375 331.828125 C 562.066406 334.773438 564.0625 337.609375 567.003906 338.136719 L 595.15625 343.078125 C 598.097656 343.605469 600.9375 341.605469 601.460938 338.664062 L 605.558594 315.53125 C 606.082031 312.585938 604.085938 309.746094 601.144531 309.222656 L 572.992188 304.28125 C 569.945312 303.753906 567.109375 305.75 566.6875 308.695312 Z M 615.539062 316.160156 L 611.125 341.5 C 610.707031 343.816406 612.28125 346.128906 614.59375 346.546875 L 644.953125 351.910156 C 647.265625 352.332031 649.574219 350.753906 649.996094 348.441406 L 654.40625 323.101562 C 654.828125 320.789062 653.25 318.472656 650.941406 318.054688 L 620.582031 312.691406 C 618.269531 312.269531 615.957031 313.847656 615.539062 316.160156 Z M 663.96875 324.992188 L 659.660156 349.703125 C 659.238281 352.226562 660.921875 354.644531 663.441406 355.066406 L 693.171875 360.324219 C 695.691406 360.742188 698.109375 359.0625 698.53125 356.539062 L 702.835938 331.828125 C 703.257812 329.304688 701.574219 326.886719 699.054688 326.464844 L 669.324219 321.207031 C 666.804688 320.789062 664.386719 322.46875 663.96875 324.992188 Z M 509.644531 343.710938 L 505.652344 366.316406 C 505.128906 369.363281 507.230469 372.414062 510.277344 372.941406 L 537.90625 377.777344 C 540.953125 378.300781 543.996094 376.199219 544.523438 373.148438 L 548.515625 350.542969 C 549.039062 347.496094 546.9375 344.445312 543.894531 343.917969 L 516.265625 339.082031 C 513.21875 338.558594 510.171875 340.660156 509.644531 343.710938 Z M 559.125 351.175781 L 554.714844 376.199219 C 554.292969 378.617188 555.867188 380.929688 558.285156 381.351562 L 588.328125 386.609375 C 590.746094 387.03125 593.058594 385.453125 593.476562 383.035156 L 597.890625 358.007812 C 598.308594 355.589844 596.734375 353.277344 594.316406 352.855469 L 564.273438 347.601562 C 561.855469 347.179688 559.546875 348.757812 559.125 351.175781 Z M 607.871094 360.21875 L 603.667969 384.402344 C 603.246094 387.03125 604.929688 389.554688 607.660156 390.078125 L 636.863281 395.230469 C 639.488281 395.652344 642.011719 393.96875 642.535156 391.234375 L 646.738281 367.050781 C 647.160156 364.421875 645.476562 361.898438 642.746094 361.375 L 613.542969 356.222656 C 610.8125 355.800781 608.289062 357.589844 607.871094 360.21875 Z M 502.1875 386.082031 L 497.773438 410.898438 C 497.355469 413.421875 499.035156 415.734375 501.453125 416.15625 L 531.285156 421.414062 C 533.808594 421.832031 536.117188 420.152344 536.539062 417.730469 L 540.953125 392.917969 C 541.371094 390.394531 539.691406 388.082031 537.273438 387.660156 L 507.441406 382.402344 C 505.023438 381.878906 502.710938 383.558594 502.1875 386.082031 Z M 551.5625 394.808594 L 547.253906 419.625 C 546.835938 422.148438 548.515625 424.460938 550.929688 424.882812 L 580.765625 430.140625 C 583.289062 430.558594 585.597656 428.878906 586.019531 426.460938 L 590.324219 401.644531 C 590.746094 399.121094 589.066406 396.808594 586.648438 396.386719 L 556.8125 391.128906 C 554.292969 390.605469 551.980469 392.285156 551.5625 394.808594 Z M 600.199219 403.539062 L 595.894531 428.035156 C 595.472656 430.664062 597.152344 433.082031 599.78125 433.503906 L 629.300781 438.65625 C 631.925781 439.078125 634.34375 437.394531 634.761719 434.765625 L 639.070312 410.265625 C 639.488281 407.636719 637.808594 405.21875 635.183594 404.800781 L 605.664062 399.648438 C 603.140625 399.226562 600.726562 400.910156 600.199219 403.539062 Z M 600.199219 403.539062 " fill-opacity="1" fill-rule="nonzero"/><path fill="#281c22" d="M 692.015625 467.152344 C 692.644531 467.253906 692.4375 468.308594 691.699219 468.203125 C 676.679688 465.679688 661.65625 463.15625 646.738281 460.738281 C 593.792969 451.90625 540.847656 443.070312 488.003906 434.238281 C 487.375 434.136719 487.585938 433.082031 488.320312 433.1875 C 503.34375 435.710938 518.363281 438.234375 533.28125 440.652344 C 586.125 449.484375 639.070312 458.320312 692.015625 467.152344 Z M 681.300781 441.496094 C 669.957031 438.972656 658.609375 436.867188 647.160156 435.1875 C 646.527344 435.082031 646.214844 436.132812 646.84375 436.238281 C 658.292969 437.921875 669.746094 440.023438 680.984375 442.546875 C 681.722656 442.652344 681.929688 441.707031 681.300781 441.496094 Z M 631.609375 433.1875 C 621.210938 432.03125 611.019531 430.347656 600.726562 428.351562 C 600.09375 428.246094 599.78125 429.191406 600.410156 429.402344 C 610.707031 431.507812 621.105469 433.1875 631.507812 434.34375 C 632.242188 434.238281 632.242188 433.1875 631.609375 433.1875 Z M 582.972656 424.988281 C 572.46875 423.199219 561.960938 421.414062 551.457031 419.519531 C 550.824219 419.414062 550.511719 420.464844 551.140625 420.570312 C 561.648438 422.359375 572.152344 424.144531 582.65625 426.039062 C 583.289062 426.039062 583.601562 425.09375 582.972656 424.988281 Z M 534.019531 415.945312 C 523.09375 413.945312 512.167969 412.054688 501.136719 410.160156 C 500.507812 410.054688 500.191406 411.109375 500.820312 411.214844 C 511.746094 413.105469 522.777344 415 533.703125 416.996094 C 534.4375 417.101562 534.648438 416.15625 534.019531 415.945312 Z M 541.476562 371.363281 C 531.078125 370.3125 520.78125 368.839844 510.484375 367.050781 C 509.855469 366.945312 509.539062 367.996094 510.171875 368.101562 C 520.570312 369.890625 530.972656 371.363281 541.371094 372.519531 C 542.105469 372.414062 542.105469 371.363281 541.476562 371.363281 Z M 588.960938 379.984375 C 579.714844 379.144531 570.472656 378.09375 561.226562 376.832031 C 560.597656 376.726562 560.28125 377.777344 560.910156 377.882812 C 570.261719 379.144531 579.503906 380.195312 588.855469 381.140625 C 589.695312 381.140625 589.695312 380.089844 588.960938 379.984375 Z M 637.703125 388.5 C 627.621094 387.34375 617.640625 386.292969 607.554688 385.136719 C 606.925781 385.03125 606.925781 386.082031 607.554688 386.1875 C 617.640625 387.34375 627.621094 388.394531 637.703125 389.554688 C 638.335938 389.554688 638.335938 388.5 637.703125 388.5 Z M 692.75 354.960938 C 683.296875 353.488281 673.945312 352.121094 664.492188 350.648438 C 663.863281 350.542969 663.546875 351.59375 664.175781 351.699219 C 673.632812 353.171875 682.980469 354.539062 692.4375 356.011719 C 693.171875 356.117188 693.488281 355.066406 692.75 354.960938 Z M 644.953125 346.339844 C 635.917969 345.078125 626.882812 343.5 617.953125 341.710938 C 617.324219 341.605469 617.007812 342.550781 617.640625 342.761719 C 626.570312 344.550781 635.601562 346.128906 644.636719 347.390625 C 645.371094 347.390625 645.582031 346.441406 644.953125 346.339844 Z M 595.789062 337.296875 C 586.4375 335.296875 576.984375 333.929688 567.425781 332.878906 C 566.792969 332.773438 566.792969 333.824219 567.425781 333.929688 C 576.878906 334.878906 586.230469 336.347656 595.472656 338.242188 C 596.105469 338.453125 596.417969 337.402344 595.789062 337.296875 Z M 547.988281 329.828125 C 543.261719 328.566406 538.535156 327.515625 533.703125 326.886719 C 529.289062 326.253906 524.457031 326.464844 520.152344 325.097656 C 519.519531 324.886719 519.207031 325.941406 519.835938 326.148438 C 524.144531 327.515625 528.976562 327.304688 533.386719 327.9375 C 538.21875 328.671875 542.945312 329.621094 547.675781 330.882812 C 548.410156 331.09375 548.726562 330.039062 547.988281 329.828125 Z M 556.605469 281.777344 C 547.148438 281.042969 537.800781 279.78125 528.449219 278.203125 C 527.820312 278.097656 527.503906 279.148438 528.136719 279.253906 C 537.589844 280.832031 547.042969 282.09375 556.605469 282.828125 C 557.234375 282.828125 557.234375 281.777344 556.605469 281.777344 Z M 605.347656 290.296875 C 596.105469 289.347656 586.964844 288.402344 577.71875 287.457031 C 577.089844 287.351562 577.089844 288.402344 577.71875 288.507812 C 586.964844 289.453125 596.105469 290.398438 605.347656 291.347656 C 605.976562 291.453125 605.976562 290.398438 605.347656 290.296875 Z M 654.300781 298.285156 C 644.847656 296.8125 635.394531 295.65625 625.832031 294.710938 C 625.203125 294.605469 625.203125 295.65625 625.832031 295.761719 C 635.289062 296.710938 644.636719 297.867188 653.988281 299.335938 C 654.617188 299.441406 654.933594 298.390625 654.300781 298.285156 Z M 702.207031 306.171875 C 693.695312 304.699219 685.1875 303.4375 676.574219 302.492188 C 675.941406 302.386719 675.941406 303.4375 676.574219 303.542969 C 685.082031 304.488281 693.488281 305.648438 701.890625 307.117188 C 702.625 307.222656 702.941406 306.277344 702.207031 306.171875 Z M 702.207031 306.171875 " fill-opacity="1" fill-rule="nonzero"/><path fill="#281c22" d="M 748.324219 197.136719 L 735.296875 271.367188 L 509.855469 231.625 L 522.882812 157.390625 C 524.351562 148.769531 532.652344 142.984375 541.160156 144.5625 L 735.402344 178.734375 C 744.121094 180.3125 749.792969 188.515625 748.324219 197.136719 Z M 748.324219 197.136719 " fill-opacity="1" fill-rule="nonzero"/><path fill="#a7ddea" d="M 714.8125 247.082031 L 537.378906 215.851562 C 535.171875 215.429688 533.703125 213.328125 534.121094 211.226562 L 540.636719 174.003906 C 541.054688 171.796875 543.15625 170.324219 545.257812 170.746094 L 722.691406 201.972656 C 724.898438 202.394531 726.367188 204.496094 725.949219 206.597656 L 719.433594 243.820312 C 719.121094 246.027344 717.019531 247.5 714.8125 247.082031 Z M 714.8125 247.082031 " fill-opacity="1" fill-rule="nonzero"/><g clip-path="url(#c87308220d)"><path fill="#a7ddea" d="M 400.285156 505.738281 C 404.277344 511.734375 402.703125 519.828125 396.820312 523.824219 C 390.832031 527.820312 382.742188 526.242188 378.75 520.355469 C 374.757812 514.359375 376.335938 506.265625 382.21875 502.269531 C 388.207031 498.167969 396.292969 499.746094 400.285156 505.738281 Z M 394.824219 533.394531 L 388.414062 535.707031 C 388.3125 535.707031 388.207031 535.917969 388.3125 536.019531 L 403.964844 561.257812 C 404.070312 561.464844 404.488281 561.363281 404.382812 561.046875 L 395.140625 533.496094 C 395.035156 533.394531 394.929688 533.394531 394.824219 533.394531 Z M 394.824219 533.394531 " fill-opacity="1" fill-rule="nonzero"/></g><path fill="#281c22" d="M 328.535156 434.449219 L 416.882812 374.832031 C 418.144531 373.992188 419.511719 373.992188 420.140625 374.832031 C 420.667969 375.671875 420.140625 377.039062 418.984375 377.777344 L 330.636719 437.394531 C 329.375 438.234375 328.011719 438.234375 327.378906 437.394531 C 326.75 436.660156 327.273438 435.292969 328.535156 434.449219 Z M 481.492188 472.40625 C 488.214844 478.296875 495.042969 484.183594 501.765625 490.074219 C 504.289062 492.28125 508.070312 488.601562 505.445312 486.390625 C 498.71875 480.503906 491.890625 474.617188 485.167969 468.726562 C 482.753906 466.519531 478.96875 470.199219 481.492188 472.40625 Z M 481.492188 472.40625 " fill-opacity="1" fill-rule="nonzero"/><path fill="#d15081" d="M 338.621094 330.777344 L 487.375 459.582031 C 490.105469 461.894531 490.839844 465.785156 489.265625 468.9375 L 486.21875 475.140625 C 485.273438 476.929688 482.960938 477.453125 481.386719 476.089844 L 333.789062 346.96875 Z M 316.140625 346.234375 L 379.695312 532.550781 C 380.851562 535.917969 384.109375 538.019531 387.679688 537.808594 L 394.507812 537.28125 C 396.503906 537.074219 397.871094 535.074219 397.136719 533.183594 L 333.054688 347.914062 Z M 316.140625 346.234375 " fill-opacity="1" fill-rule="nonzero"/><path fill="#281c22" d="M 340.933594 359.585938 C 325.28125 370.523438 296.808594 332.667969 286.832031 318.371094 C 284.835938 315.53125 285.675781 311.535156 288.722656 309.328125 L 295.65625 304.488281 L 275.589844 277.046875 C 274.117188 275.050781 274.222656 272.210938 275.800781 270.316406 C 277.691406 268.109375 280.527344 265.480469 284.308594 264.21875 C 286.726562 263.378906 289.457031 264.429688 290.71875 266.636719 L 308.050781 295.867188 L 315.40625 290.714844 C 318.554688 288.507812 322.863281 289.242188 324.753906 292.398438 C 333.894531 307.644531 356.375 348.757812 340.933594 359.585938 Z M 340.933594 359.585938 " fill-opacity="1" fill-rule="nonzero"/><path fill="#a7ddea" d="M 477.394531 453.691406 C 481.386719 459.683594 479.8125 467.78125 473.929688 471.777344 C 467.941406 475.773438 459.851562 474.195312 455.859375 468.308594 C 451.867188 462.417969 453.441406 454.21875 459.324219 450.222656 C 465.207031 446.226562 473.402344 447.804688 477.394531 453.691406 Z M 477.394531 453.691406 " fill-opacity="1" fill-rule="nonzero"/><path fill="#a7ddea" d="M 326.328125 319.734375 C 329.167969 323.835938 328.011719 329.515625 323.914062 332.25 C 319.816406 334.980469 314.144531 333.929688 311.414062 329.832031 C 308.574219 325.730469 309.730469 320.050781 313.828125 317.316406 C 317.925781 314.582031 323.492188 315.636719 326.328125 319.734375 Z M 307.316406 295.972656 C 306.683594 296.394531 306.054688 296.8125 305.425781 297.234375 C 305.425781 297.128906 305.425781 297.128906 305.320312 297.023438 C 300.066406 288.085938 294.605469 279.253906 289.035156 270.527344 C 288.722656 270.003906 287.777344 270.527344 288.089844 271.054688 C 293.765625 279.78125 299.226562 288.613281 304.375 297.550781 C 304.375 297.65625 304.480469 297.65625 304.585938 297.761719 C 303.742188 298.285156 302.902344 298.8125 302.0625 299.335938 C 296.074219 290.503906 289.980469 281.671875 283.679688 273.050781 C 283.257812 272.527344 282.417969 273.050781 282.734375 273.578125 C 289.035156 282.304688 295.128906 291.03125 301.117188 299.96875 C 300.382812 300.496094 299.648438 301.019531 298.804688 301.546875 C 292.609375 293.238281 286.410156 284.828125 280.316406 276.519531 C 279.898438 275.996094 279.054688 276.519531 279.371094 277.046875 C 285.570312 285.457031 291.769531 293.765625 297.964844 302.175781 C 297.441406 302.597656 296.808594 303.019531 296.179688 303.4375 C 295.65625 303.859375 296.179688 304.699219 296.707031 304.382812 C 300.277344 301.757812 303.847656 299.335938 307.628906 297.023438 C 308.472656 296.5 307.945312 295.65625 307.316406 295.972656 Z M 307.316406 295.972656 " fill-opacity="1" fill-rule="nonzero"/><path fill="#281c22" d="M 314.984375 314.480469 C 314.878906 313.847656 315.929688 313.847656 316.035156 314.480469 C 317.085938 322.574219 318.347656 330.566406 319.816406 338.558594 C 319.921875 339.1875 318.976562 339.503906 318.765625 338.871094 C 317.296875 330.777344 316.035156 322.574219 314.984375 314.480469 Z M 318.660156 315.425781 C 319.710938 322.574219 320.761719 329.726562 321.917969 336.980469 C 322.023438 337.609375 323.074219 337.402344 322.96875 336.664062 C 321.917969 329.515625 320.867188 322.363281 319.710938 315.109375 C 319.605469 314.480469 318.554688 314.792969 318.660156 315.425781 Z M 318.660156 315.425781 " fill-opacity="1" fill-rule="nonzero"/><path fill="#a7ddea" d="M 362.046875 384.609375 L 389.046875 427.511719 L 384.109375 430.875 L 354.902344 389.449219 Z M 362.046875 384.609375 " fill-opacity="1" fill-rule="nonzero"/><path fill="#281c22" d="M 465.945312 456.953125 C 466.574219 456.742188 466.890625 457.792969 466.257812 458.003906 C 463.210938 458.84375 463.738281 463.574219 466.890625 463.785156 C 470.882812 464.101562 470.25 457.058594 466.257812 458.003906 C 465.523438 458.109375 465.207031 457.058594 465.945312 456.953125 C 468.046875 456.425781 470.355469 458.109375 470.671875 460.210938 C 470.988281 462.207031 469.726562 464.417969 467.730469 464.730469 C 465.628906 465.152344 463.632812 463.261719 463.210938 461.367188 C 462.6875 459.371094 463.949219 457.476562 465.945312 456.953125 Z M 455.332031 453.480469 C 451.445312 458.421875 453.546875 467.359375 457.855469 471.355469 C 462.582031 475.667969 470.566406 475.5625 475.292969 471.25 C 475.820312 470.832031 475.082031 470.09375 474.558594 470.515625 C 470.25 474.40625 462.792969 474.511719 458.589844 470.621094 C 454.703125 467.152344 452.496094 458.738281 456.070312 454.21875 C 456.488281 453.691406 455.753906 452.957031 455.332031 453.480469 Z M 455.332031 453.480469 " fill-opacity="1" fill-rule="nonzero"/></svg>