<svg xmlns="http://www.w3.org/2000/svg" xmlns:xlink="http://www.w3.org/1999/xlink" width="1366" zoomAndPan="magnify" viewBox="0 0 1024.5 576" height="768" preserveAspectRatio="xMidYMid meet" version="1.0"><defs><g/><clipPath id="898a63b23c"><path d="M 0 0.140625 L 1024 0.140625 L 1024 575.859375 L 0 575.859375 Z M 0 0.140625 " clip-rule="nonzero"/></clipPath></defs><g clip-path="url(#898a63b23c)"><path fill="#ffffff" d="M 0 0.140625 L 1024 0.140625 L 1024 575.859375 L 0 575.859375 Z M 0 0.140625 " fill-opacity="1" fill-rule="nonzero"/><path fill="#ffffff" d="M 0 0.140625 L 1024 0.140625 L 1024 575.859375 L 0 575.859375 Z M 0 0.140625 " fill-opacity="1" fill-rule="nonzero"/></g><g fill="#f15c3e" fill-opacity="1"><g transform="translate(309.813649, 272.257692)"><g><path d="M 47.234375 -23.71875 C 46.648438 -20.75 45.710938 -17.664062 44.421875 -14.46875 C 43.140625 -11.28125 41.492188 -8.367188 39.484375 -5.734375 C 37.472656 -3.097656 35.082031 -0.941406 32.3125 0.734375 C 29.550781 2.421875 26.390625 3.265625 22.828125 3.265625 C 20.191406 3.265625 17.816406 2.734375 15.703125 1.671875 C 13.597656 0.617188 11.6875 -0.789062 9.96875 -2.5625 C 8.257812 -4.34375 6.78125 -6.382812 5.53125 -8.6875 C 4.28125 -11 3.242188 -13.390625 2.421875 -15.859375 C 1.597656 -18.328125 0.988281 -20.78125 0.59375 -23.21875 C 0.195312 -25.65625 0 -27.929688 0 -30.046875 C 0 -33.003906 0.28125 -36.179688 0.84375 -39.578125 C 1.40625 -42.972656 2.242188 -46.332031 3.359375 -49.65625 C 4.484375 -52.988281 5.898438 -56.1875 7.609375 -59.25 C 9.316406 -62.3125 11.34375 -65.007812 13.6875 -67.34375 C 16.03125 -69.6875 18.664062 -71.566406 21.59375 -72.984375 C 24.53125 -74.398438 27.804688 -75.109375 31.421875 -75.109375 C 33.734375 -75.109375 35.875 -74.660156 37.84375 -73.765625 C 39.820312 -72.878906 41.535156 -71.695312 42.984375 -70.21875 C 44.441406 -68.738281 45.582031 -66.976562 46.40625 -64.9375 C 47.226562 -62.894531 47.640625 -60.753906 47.640625 -58.515625 L 47.640625 -57.625 C 47.640625 -56.4375 47.585938 -54.96875 47.484375 -53.21875 C 47.390625 -51.476562 47.078125 -49.816406 46.546875 -48.234375 C 46.023438 -46.648438 45.234375 -45.28125 44.171875 -44.125 C 43.117188 -42.976562 41.640625 -42.40625 39.734375 -42.40625 C 37.421875 -42.40625 35.671875 -42.929688 34.484375 -43.984375 C 33.304688 -45.035156 32.71875 -46.78125 32.71875 -49.21875 C 32.71875 -50.144531 32.75 -51.066406 32.8125 -51.984375 C 32.875 -52.910156 32.90625 -53.832031 32.90625 -54.75 C 32.90625 -56.132812 32.675781 -57.203125 32.21875 -57.953125 C 31.757812 -58.710938 30.804688 -59.09375 29.359375 -59.09375 C 27.703125 -59.09375 26.210938 -58.566406 24.890625 -57.515625 C 23.578125 -56.460938 22.425781 -55.078125 21.4375 -53.359375 C 20.457031 -51.648438 19.601562 -49.707031 18.875 -47.53125 C 18.15625 -45.363281 17.5625 -43.175781 17.09375 -40.96875 C 16.632812 -38.757812 16.304688 -36.632812 16.109375 -34.59375 C 15.910156 -32.550781 15.8125 -30.804688 15.8125 -29.359375 C 15.8125 -28.171875 15.875 -26.800781 16 -25.25 C 16.132812 -23.695312 16.414062 -22.210938 16.84375 -20.796875 C 17.28125 -19.378906 17.925781 -18.175781 18.78125 -17.1875 C 19.632812 -16.207031 20.753906 -15.71875 22.140625 -15.71875 C 24.515625 -15.71875 26.425781 -16.457031 27.875 -17.9375 C 29.320312 -19.414062 30.304688 -21.3125 30.828125 -23.625 C 29.910156 -23.75 29.003906 -23.957031 28.109375 -24.25 C 27.222656 -24.550781 26.398438 -24.984375 25.640625 -25.546875 C 24.890625 -26.109375 24.28125 -26.800781 23.8125 -27.625 C 23.351562 -28.445312 23.125 -29.414062 23.125 -30.53125 C 23.125 -32.582031 23.816406 -34.179688 25.203125 -35.328125 C 26.585938 -36.484375 28.21875 -37.359375 30.09375 -37.953125 C 31.96875 -38.546875 33.894531 -38.921875 35.875 -39.078125 C 37.851562 -39.242188 39.4375 -39.328125 40.625 -39.328125 C 41.476562 -39.328125 42.726562 -39.257812 44.375 -39.125 C 46.019531 -39 47.648438 -38.722656 49.265625 -38.296875 C 50.878906 -37.867188 52.28125 -37.257812 53.46875 -36.46875 C 54.65625 -35.675781 55.25 -34.65625 55.25 -33.40625 C 55.25 -30.90625 54.570312 -28.75 53.21875 -26.9375 C 51.863281 -25.125 49.867188 -24.050781 47.234375 -23.71875 Z M 47.234375 -23.71875 "/></g></g><g transform="translate(362.489355, 272.257692)"><g><path d="M 46.0625 -15.515625 C 46.0625 -14.265625 45.726562 -13.046875 45.0625 -11.859375 C 44.40625 -10.734375 42.859375 -9.414062 40.421875 -7.90625 C 37.984375 -6.394531 35.28125 -4.960938 32.3125 -3.609375 C 29.351562 -2.253906 26.488281 -1.097656 23.71875 -0.140625 C 20.945312 0.804688 18.90625 1.28125 17.59375 1.28125 C 16.664062 1.28125 15.578125 1.066406 14.328125 0.640625 C 13.078125 0.210938 11.828125 -0.328125 10.578125 -0.984375 C 9.328125 -1.648438 8.191406 -2.410156 7.171875 -3.265625 C 6.148438 -4.117188 5.40625 -4.941406 4.9375 -5.734375 C 4.675781 -6.191406 4.429688 -7.113281 4.203125 -8.5 C 3.972656 -9.882812 3.773438 -11.5 3.609375 -13.34375 C 3.441406 -15.1875 3.289062 -17.144531 3.15625 -19.21875 C 3.03125 -21.289062 2.914062 -23.265625 2.8125 -25.140625 C 2.71875 -27.023438 2.648438 -28.691406 2.609375 -30.140625 C 2.578125 -31.585938 2.5625 -32.644531 2.5625 -33.3125 C 2.5625 -35.75 2.644531 -38.546875 2.8125 -41.703125 C 2.976562 -44.867188 3.289062 -48.046875 3.75 -51.234375 C 4.21875 -54.429688 4.894531 -57.492188 5.78125 -60.421875 C 6.664062 -63.359375 7.867188 -65.847656 9.390625 -67.890625 C 9.847656 -68.484375 10.769531 -69.109375 12.15625 -69.765625 C 13.539062 -70.429688 15.171875 -71.0625 17.046875 -71.65625 C 18.921875 -72.25 20.945312 -72.804688 23.125 -73.328125 C 25.300781 -73.859375 27.394531 -74.300781 29.40625 -74.65625 C 31.414062 -75.019531 33.242188 -75.316406 34.890625 -75.546875 C 36.535156 -75.785156 37.785156 -75.90625 38.640625 -75.90625 C 39.628906 -75.90625 40.566406 -75.691406 41.453125 -75.265625 C 42.347656 -74.835938 43.109375 -74.257812 43.734375 -73.53125 C 44.359375 -72.800781 44.851562 -71.992188 45.21875 -71.109375 C 45.582031 -70.222656 45.765625 -69.285156 45.765625 -68.296875 C 45.765625 -67.429688 45.644531 -66.703125 45.40625 -66.109375 C 45.175781 -65.523438 44.832031 -64.867188 44.375 -64.140625 C 43.71875 -63.285156 42.332031 -62.265625 40.21875 -61.078125 C 38.113281 -59.890625 35.828125 -58.71875 33.359375 -57.5625 C 30.890625 -56.414062 28.515625 -55.378906 26.234375 -54.453125 C 23.960938 -53.535156 22.367188 -52.878906 21.453125 -52.484375 C 21.179688 -50.960938 20.894531 -49.425781 20.59375 -47.875 C 20.300781 -46.332031 20.09375 -44.769531 19.96875 -43.1875 C 22.007812 -44.238281 24.3125 -45.222656 26.875 -46.140625 C 29.445312 -47.066406 31.890625 -47.53125 34.203125 -47.53125 C 38.878906 -47.53125 41.21875 -45.226562 41.21875 -40.625 C 41.21875 -39.5 41 -38.507812 40.5625 -37.65625 C 40.132812 -36.800781 39.578125 -36.039062 38.890625 -35.375 C 38.203125 -34.71875 37.410156 -34.140625 36.515625 -33.640625 C 35.628906 -33.148438 34.757812 -32.675781 33.90625 -32.21875 C 31.789062 -31.09375 29.578125 -30.117188 27.265625 -29.296875 C 24.960938 -28.472656 22.660156 -27.664062 20.359375 -26.875 C 20.222656 -26.351562 20.085938 -25.78125 19.953125 -25.15625 C 19.828125 -24.53125 19.765625 -23.921875 19.765625 -23.328125 C 19.765625 -22.398438 19.828125 -21.472656 19.953125 -20.546875 C 20.085938 -19.628906 20.222656 -18.710938 20.359375 -17.796875 C 21.148438 -18.054688 22.414062 -18.484375 24.15625 -19.078125 C 25.90625 -19.671875 27.734375 -20.265625 29.640625 -20.859375 C 31.554688 -21.453125 33.40625 -21.960938 35.1875 -22.390625 C 36.96875 -22.816406 38.285156 -23.03125 39.140625 -23.03125 C 40.128906 -23.03125 41.050781 -22.816406 41.90625 -22.390625 C 42.757812 -21.960938 43.484375 -21.398438 44.078125 -20.703125 C 44.671875 -20.015625 45.148438 -19.207031 45.515625 -18.28125 C 45.878906 -17.363281 46.0625 -16.441406 46.0625 -15.515625 Z M 46.0625 -15.515625 "/></g></g><g transform="translate(410.025967, 272.257692)"><g><path d="M 45.765625 -67.5 C 45.765625 -65.851562 45.117188 -64.351562 43.828125 -63 C 42.546875 -61.65625 41 -60.472656 39.1875 -59.453125 C 37.375 -58.429688 35.507812 -57.585938 33.59375 -56.921875 C 31.6875 -56.265625 30.109375 -55.804688 28.859375 -55.546875 C 28.328125 -50.472656 27.910156 -45.414062 27.609375 -40.375 C 27.316406 -35.332031 27.171875 -30.273438 27.171875 -25.203125 C 27.171875 -22.503906 27.238281 -19.835938 27.375 -17.203125 C 27.507812 -14.566406 27.578125 -11.929688 27.578125 -9.296875 C 27.578125 -8.109375 27.457031 -6.804688 27.21875 -5.390625 C 26.988281 -3.972656 26.59375 -2.632812 26.03125 -1.375 C 25.476562 -0.125 24.707031 0.925781 23.71875 1.78125 C 22.726562 2.632812 21.507812 3.0625 20.0625 3.0625 C 18.351562 3.0625 16.984375 2.582031 15.953125 1.625 C 14.929688 0.675781 14.140625 -0.488281 13.578125 -1.875 C 13.023438 -3.257812 12.648438 -4.722656 12.453125 -6.265625 C 12.253906 -7.816406 12.15625 -9.21875 12.15625 -10.46875 C 12.019531 -14.425781 11.921875 -18.394531 11.859375 -22.375 C 11.796875 -26.363281 11.765625 -30.367188 11.765625 -34.390625 C 11.765625 -37.753906 11.78125 -41.050781 11.8125 -44.28125 C 11.84375 -47.507812 11.859375 -50.800781 11.859375 -54.15625 C 10.929688 -54.03125 9.988281 -53.929688 9.03125 -53.859375 C 8.082031 -53.796875 7.113281 -53.765625 6.125 -53.765625 C 5.332031 -53.765625 4.296875 -53.847656 3.015625 -54.015625 C 1.734375 -54.179688 0.5 -54.476562 -0.6875 -54.90625 C -1.875 -55.332031 -2.894531 -55.921875 -3.75 -56.671875 C -4.613281 -57.429688 -5.046875 -58.40625 -5.046875 -59.59375 C -5.046875 -61.570312 -4.269531 -63.300781 -2.71875 -64.78125 C -1.164062 -66.257812 0.804688 -67.539062 3.203125 -68.625 C 5.609375 -69.71875 8.273438 -70.644531 11.203125 -71.40625 C 14.140625 -72.164062 17.039062 -72.757812 19.90625 -73.1875 C 22.78125 -73.613281 25.414062 -73.925781 27.8125 -74.125 C 30.21875 -74.320312 32.082031 -74.421875 33.40625 -74.421875 C 34.65625 -74.421875 35.988281 -74.367188 37.40625 -74.265625 C 38.820312 -74.171875 40.15625 -73.890625 41.40625 -73.421875 C 42.65625 -72.960938 43.691406 -72.269531 44.515625 -71.34375 C 45.347656 -70.425781 45.765625 -69.144531 45.765625 -67.5 Z M 45.765625 -67.5 "/></g></g><g transform="translate(447.679708, 272.257692)"><g/></g><g transform="translate(471.497428, 272.257692)"><g><path d="M 51.1875 -51.984375 C 51.1875 -47.441406 50.132812 -43.359375 48.03125 -39.734375 C 45.925781 -36.109375 43.125 -32.910156 39.625 -30.140625 C 40.6875 -28.554688 41.773438 -26.710938 42.890625 -24.609375 C 44.015625 -22.503906 45.019531 -20.28125 45.90625 -17.9375 C 46.789062 -15.59375 47.515625 -13.25 48.078125 -10.90625 C 48.640625 -8.570312 48.921875 -6.421875 48.921875 -4.453125 C 48.921875 -2.335938 48.410156 -0.441406 47.390625 1.234375 C 46.367188 2.910156 44.640625 3.75 42.203125 3.75 C 40.160156 3.75 38.394531 2.757812 36.90625 0.78125 C 35.425781 -1.1875 34.109375 -3.535156 32.953125 -6.265625 C 31.804688 -9.003906 30.753906 -11.789062 29.796875 -14.625 C 28.835938 -17.457031 27.929688 -19.734375 27.078125 -21.453125 C 25.890625 -21.054688 24.734375 -20.609375 23.609375 -20.109375 C 22.492188 -19.617188 21.34375 -19.140625 20.15625 -18.671875 C 20.09375 -17.222656 19.976562 -15.226562 19.8125 -12.6875 C 19.644531 -10.15625 19.28125 -7.640625 18.71875 -5.140625 C 18.164062 -2.640625 17.328125 -0.46875 16.203125 1.375 C 15.085938 3.226562 13.539062 4.15625 11.5625 4.15625 C 9.382812 4.15625 7.703125 3.265625 6.515625 1.484375 C 5.335938 -0.296875 4.5 -2.40625 4 -4.84375 C 3.507812 -7.28125 3.226562 -9.765625 3.15625 -12.296875 C 3.09375 -14.835938 3.0625 -16.832031 3.0625 -18.28125 C 3.0625 -21.375 3.125 -24.421875 3.25 -27.421875 C 3.382812 -30.421875 3.453125 -33.46875 3.453125 -36.5625 C 3.453125 -39.394531 3.398438 -42.226562 3.296875 -45.0625 C 3.203125 -47.894531 3.15625 -50.765625 3.15625 -53.671875 C 3.15625 -54.328125 3.15625 -55.164062 3.15625 -56.1875 C 3.15625 -57.207031 3.203125 -58.257812 3.296875 -59.34375 C 3.398438 -60.4375 3.519531 -61.472656 3.65625 -62.453125 C 3.789062 -63.441406 4.019531 -64.234375 4.34375 -64.828125 C 5.007812 -66.210938 6.507812 -67.53125 8.84375 -68.78125 C 11.1875 -70.039062 13.753906 -71.144531 16.546875 -72.09375 C 19.347656 -73.050781 22.082031 -73.804688 24.75 -74.359375 C 27.425781 -74.921875 29.421875 -75.203125 30.734375 -75.203125 C 34.097656 -75.203125 37.0625 -74.578125 39.625 -73.328125 C 42.195312 -72.078125 44.335938 -70.378906 46.046875 -68.234375 C 47.765625 -66.097656 49.050781 -63.628906 49.90625 -60.828125 C 50.757812 -58.023438 51.1875 -55.078125 51.1875 -51.984375 Z M 32.90625 -50.609375 C 32.90625 -52.316406 32.507812 -53.613281 31.71875 -54.5 C 30.925781 -55.394531 29.644531 -55.84375 27.875 -55.84375 C 26.550781 -55.84375 25.210938 -55.609375 23.859375 -55.140625 C 22.515625 -54.679688 21.28125 -54.15625 20.15625 -53.5625 C 20.425781 -48.363281 20.523438 -43.191406 20.453125 -38.046875 C 21.835938 -38.503906 23.253906 -39.097656 24.703125 -39.828125 C 26.148438 -40.554688 27.484375 -41.445312 28.703125 -42.5 C 29.921875 -43.550781 30.925781 -44.734375 31.71875 -46.046875 C 32.507812 -47.367188 32.90625 -48.890625 32.90625 -50.609375 Z M 32.90625 -50.609375 "/></g></g><g transform="translate(523.184847, 272.257692)"><g><path d="M 46.0625 -15.515625 C 46.0625 -14.265625 45.726562 -13.046875 45.0625 -11.859375 C 44.40625 -10.734375 42.859375 -9.414062 40.421875 -7.90625 C 37.984375 -6.394531 35.28125 -4.960938 32.3125 -3.609375 C 29.351562 -2.253906 26.488281 -1.097656 23.71875 -0.140625 C 20.945312 0.804688 18.90625 1.28125 17.59375 1.28125 C 16.664062 1.28125 15.578125 1.066406 14.328125 0.640625 C 13.078125 0.210938 11.828125 -0.328125 10.578125 -0.984375 C 9.328125 -1.648438 8.191406 -2.410156 7.171875 -3.265625 C 6.148438 -4.117188 5.40625 -4.941406 4.9375 -5.734375 C 4.675781 -6.191406 4.429688 -7.113281 4.203125 -8.5 C 3.972656 -9.882812 3.773438 -11.5 3.609375 -13.34375 C 3.441406 -15.1875 3.289062 -17.144531 3.15625 -19.21875 C 3.03125 -21.289062 2.914062 -23.265625 2.8125 -25.140625 C 2.71875 -27.023438 2.648438 -28.691406 2.609375 -30.140625 C 2.578125 -31.585938 2.5625 -32.644531 2.5625 -33.3125 C 2.5625 -35.75 2.644531 -38.546875 2.8125 -41.703125 C 2.976562 -44.867188 3.289062 -48.046875 3.75 -51.234375 C 4.21875 -54.429688 4.894531 -57.492188 5.78125 -60.421875 C 6.664062 -63.359375 7.867188 -65.847656 9.390625 -67.890625 C 9.847656 -68.484375 10.769531 -69.109375 12.15625 -69.765625 C 13.539062 -70.429688 15.171875 -71.0625 17.046875 -71.65625 C 18.921875 -72.25 20.945312 -72.804688 23.125 -73.328125 C 25.300781 -73.859375 27.394531 -74.300781 29.40625 -74.65625 C 31.414062 -75.019531 33.242188 -75.316406 34.890625 -75.546875 C 36.535156 -75.785156 37.785156 -75.90625 38.640625 -75.90625 C 39.628906 -75.90625 40.566406 -75.691406 41.453125 -75.265625 C 42.347656 -74.835938 43.109375 -74.257812 43.734375 -73.53125 C 44.359375 -72.800781 44.851562 -71.992188 45.21875 -71.109375 C 45.582031 -70.222656 45.765625 -69.285156 45.765625 -68.296875 C 45.765625 -67.429688 45.644531 -66.703125 45.40625 -66.109375 C 45.175781 -65.523438 44.832031 -64.867188 44.375 -64.140625 C 43.71875 -63.285156 42.332031 -62.265625 40.21875 -61.078125 C 38.113281 -59.890625 35.828125 -58.71875 33.359375 -57.5625 C 30.890625 -56.414062 28.515625 -55.378906 26.234375 -54.453125 C 23.960938 -53.535156 22.367188 -52.878906 21.453125 -52.484375 C 21.179688 -50.960938 20.894531 -49.425781 20.59375 -47.875 C 20.300781 -46.332031 20.09375 -44.769531 19.96875 -43.1875 C 22.007812 -44.238281 24.3125 -45.222656 26.875 -46.140625 C 29.445312 -47.066406 31.890625 -47.53125 34.203125 -47.53125 C 38.878906 -47.53125 41.21875 -45.226562 41.21875 -40.625 C 41.21875 -39.5 41 -38.507812 40.5625 -37.65625 C 40.132812 -36.800781 39.578125 -36.039062 38.890625 -35.375 C 38.203125 -34.71875 37.410156 -34.140625 36.515625 -33.640625 C 35.628906 -33.148438 34.757812 -32.675781 33.90625 -32.21875 C 31.789062 -31.09375 29.578125 -30.117188 27.265625 -29.296875 C 24.960938 -28.472656 22.660156 -27.664062 20.359375 -26.875 C 20.222656 -26.351562 20.085938 -25.78125 19.953125 -25.15625 C 19.828125 -24.53125 19.765625 -23.921875 19.765625 -23.328125 C 19.765625 -22.398438 19.828125 -21.472656 19.953125 -20.546875 C 20.085938 -19.628906 20.222656 -18.710938 20.359375 -17.796875 C 21.148438 -18.054688 22.414062 -18.484375 24.15625 -19.078125 C 25.90625 -19.671875 27.734375 -20.265625 29.640625 -20.859375 C 31.554688 -21.453125 33.40625 -21.960938 35.1875 -22.390625 C 36.96875 -22.816406 38.285156 -23.03125 39.140625 -23.03125 C 40.128906 -23.03125 41.050781 -22.816406 41.90625 -22.390625 C 42.757812 -21.960938 43.484375 -21.398438 44.078125 -20.703125 C 44.671875 -20.015625 45.148438 -19.207031 45.515625 -18.28125 C 45.878906 -17.363281 46.0625 -16.441406 46.0625 -15.515625 Z M 46.0625 -15.515625 "/></g></g><g transform="translate(570.721459, 272.257692)"><g><path d="M 52.875 -14.625 C 52.875 -13.3125 52.757812 -11.726562 52.53125 -9.875 C 52.300781 -8.03125 51.851562 -6.269531 51.1875 -4.59375 C 50.53125 -2.914062 49.640625 -1.5 48.515625 -0.34375 C 47.398438 0.8125 45.921875 1.390625 44.078125 1.390625 C 41.640625 1.390625 39.8125 0.5 38.59375 -1.28125 C 37.375 -3.0625 36.5 -5.1875 35.96875 -7.65625 C 35.445312 -10.125 35.132812 -12.644531 35.03125 -15.21875 C 34.9375 -17.789062 34.851562 -19.832031 34.78125 -21.34375 C 30.039062 -20.550781 25.363281 -19.859375 20.75 -19.265625 C 20.625 -17.753906 20.34375 -15.878906 19.90625 -13.640625 C 19.476562 -11.398438 18.820312 -9.238281 17.9375 -7.15625 C 17.050781 -5.082031 15.898438 -3.285156 14.484375 -1.765625 C 13.066406 -0.253906 11.335938 0.5 9.296875 0.5 C 7.710938 0.5 6.472656 -0.078125 5.578125 -1.234375 C 4.691406 -2.390625 4.015625 -3.753906 3.546875 -5.328125 C 3.085938 -6.910156 2.804688 -8.539062 2.703125 -10.21875 C 2.609375 -11.90625 2.5625 -13.304688 2.5625 -14.421875 C 2.5625 -18.179688 2.859375 -21.890625 3.453125 -25.546875 C 4.046875 -29.203125 4.738281 -32.84375 5.53125 -36.46875 C 5.925781 -38.375 6.453125 -40.613281 7.109375 -43.1875 C 7.773438 -45.757812 8.582031 -48.410156 9.53125 -51.140625 C 10.488281 -53.878906 11.609375 -56.582031 12.890625 -59.25 C 14.179688 -61.914062 15.648438 -64.300781 17.296875 -66.40625 C 18.941406 -68.519531 20.816406 -70.234375 22.921875 -71.546875 C 25.035156 -72.867188 27.378906 -73.53125 29.953125 -73.53125 C 32.453125 -73.53125 34.625 -72.96875 36.46875 -71.84375 C 38.3125 -70.726562 39.925781 -69.25 41.3125 -67.40625 C 42.695312 -65.5625 43.847656 -63.46875 44.765625 -61.125 C 45.691406 -58.789062 46.46875 -56.421875 47.09375 -54.015625 C 47.71875 -51.609375 48.242188 -49.25 48.671875 -46.9375 C 49.097656 -44.632812 49.476562 -42.59375 49.8125 -40.8125 C 50.664062 -36.53125 51.390625 -32.195312 51.984375 -27.8125 C 52.578125 -23.4375 52.875 -19.039062 52.875 -14.625 Z M 33.796875 -38.640625 C 33.796875 -39.429688 33.742188 -40.734375 33.640625 -42.546875 C 33.546875 -44.359375 33.332031 -46.171875 33 -47.984375 C 32.675781 -49.796875 32.164062 -51.410156 31.46875 -52.828125 C 30.78125 -54.242188 29.84375 -54.953125 28.65625 -54.953125 C 28 -54.953125 27.375 -54.503906 26.78125 -53.609375 C 26.1875 -52.722656 25.660156 -51.601562 25.203125 -50.25 C 24.742188 -48.90625 24.332031 -47.40625 23.96875 -45.75 C 23.601562 -44.101562 23.285156 -42.519531 23.015625 -41 C 22.753906 -39.488281 22.554688 -38.125 22.421875 -36.90625 C 22.296875 -35.6875 22.203125 -34.816406 22.140625 -34.296875 C 26.085938 -34.617188 29.972656 -35.113281 33.796875 -35.78125 Z M 33.796875 -38.640625 "/></g></g><g transform="translate(627.053828, 272.257692)"><g><path d="M 53.859375 -44.46875 C 53.859375 -38.675781 52.671875 -33.09375 50.296875 -27.71875 C 47.929688 -22.351562 44.753906 -17.59375 40.765625 -13.4375 C 36.773438 -9.289062 32.128906 -5.976562 26.828125 -3.5 C 21.523438 -1.03125 15.941406 0.203125 10.078125 0.203125 L 9.890625 0.203125 C 8.703125 0.203125 7.726562 -0.335938 6.96875 -1.421875 C 6.207031 -2.515625 5.5625 -3.882812 5.03125 -5.53125 C 4.507812 -7.175781 4.113281 -9.019531 3.84375 -11.0625 C 3.582031 -13.113281 3.382812 -15.109375 3.25 -17.046875 C 3.125 -18.992188 3.0625 -20.738281 3.0625 -22.28125 C 3.0625 -23.832031 3.0625 -25.003906 3.0625 -25.796875 C 3.0625 -28.035156 3.09375 -30.257812 3.15625 -32.46875 C 3.226562 -34.675781 3.328125 -36.898438 3.453125 -39.140625 C 3.453125 -39.859375 3.5 -40.925781 3.59375 -42.34375 C 3.695312 -43.757812 3.816406 -45.359375 3.953125 -47.140625 C 4.085938 -48.921875 4.253906 -50.78125 4.453125 -52.71875 C 4.648438 -54.664062 4.863281 -56.476562 5.09375 -58.15625 C 5.320312 -59.84375 5.550781 -61.328125 5.78125 -62.609375 C 6.007812 -63.890625 6.289062 -64.765625 6.625 -65.234375 C 7.476562 -66.679688 8.796875 -67.960938 10.578125 -69.078125 C 12.359375 -70.203125 14.285156 -71.125 16.359375 -71.84375 C 18.429688 -72.570312 20.535156 -73.117188 22.671875 -73.484375 C 24.816406 -73.847656 26.679688 -74.03125 28.265625 -74.03125 C 32.609375 -74.03125 36.378906 -73.222656 39.578125 -71.609375 C 42.773438 -69.992188 45.441406 -67.816406 47.578125 -65.078125 C 49.722656 -62.347656 51.304688 -59.203125 52.328125 -55.640625 C 53.347656 -52.085938 53.859375 -48.363281 53.859375 -44.46875 Z M 37.265625 -41.609375 C 37.265625 -43.054688 37 -44.535156 36.46875 -46.046875 C 35.9375 -47.566406 35.191406 -48.953125 34.234375 -50.203125 C 33.285156 -51.453125 32.132812 -52.457031 30.78125 -53.21875 C 29.4375 -53.976562 27.941406 -54.359375 26.296875 -54.359375 C 24.910156 -54.359375 23.492188 -54.03125 22.046875 -53.375 C 21.710938 -53.175781 21.410156 -52.566406 21.140625 -51.546875 C 20.878906 -50.523438 20.664062 -49.285156 20.5 -47.828125 C 20.34375 -46.378906 20.195312 -44.796875 20.0625 -43.078125 C 19.925781 -41.367188 19.84375 -39.738281 19.8125 -38.1875 C 19.78125 -36.644531 19.75 -35.28125 19.71875 -34.09375 C 19.6875 -32.90625 19.671875 -32.113281 19.671875 -31.71875 C 19.671875 -31.0625 19.671875 -30.085938 19.671875 -28.796875 C 19.671875 -27.515625 19.71875 -26.25 19.8125 -25 C 19.914062 -23.75 20.03125 -22.660156 20.15625 -21.734375 C 20.289062 -20.816406 20.523438 -20.359375 20.859375 -20.359375 C 22.828125 -20.359375 24.785156 -21.128906 26.734375 -22.671875 C 28.679688 -24.222656 30.441406 -26.117188 32.015625 -28.359375 C 33.597656 -30.597656 34.867188 -32.9375 35.828125 -35.375 C 36.785156 -37.8125 37.265625 -39.890625 37.265625 -41.609375 Z M 37.265625 -41.609375 "/></g></g><g transform="translate(682.397909, 272.257692)"><g><path d="M 47.53125 -68 C 47.53125 -65.09375 47.148438 -61.894531 46.390625 -58.40625 C 45.640625 -54.914062 44.671875 -51.390625 43.484375 -47.828125 C 42.296875 -44.273438 41.007812 -40.816406 39.625 -37.453125 C 38.25 -34.097656 36.96875 -31.132812 35.78125 -28.5625 C 35.113281 -27.113281 34.300781 -25.285156 33.34375 -23.078125 C 32.394531 -20.867188 31.328125 -18.507812 30.140625 -16 C 28.953125 -13.5 27.679688 -10.976562 26.328125 -8.4375 C 24.984375 -5.90625 23.585938 -3.632812 22.140625 -1.625 C 20.691406 0.382812 19.207031 2.03125 17.6875 3.3125 C 16.175781 4.59375 14.660156 5.234375 13.140625 5.234375 C 11.035156 5.234375 9.535156 4.457031 8.640625 2.90625 C 7.753906 1.363281 7.3125 -0.359375 7.3125 -2.265625 C 7.3125 -4.117188 7.625 -6.082031 8.25 -8.15625 C 8.875 -10.226562 9.664062 -12.285156 10.625 -14.328125 C 11.582031 -16.367188 12.632812 -18.34375 13.78125 -20.25 C 14.9375 -22.164062 16.007812 -23.882812 17 -25.40625 C 15.675781 -25.726562 14.390625 -26.316406 13.140625 -27.171875 C 11.890625 -28.035156 10.96875 -29.0625 10.375 -30.25 C 9.320312 -32.550781 8.234375 -35.148438 7.109375 -38.046875 C 5.992188 -40.953125 4.988281 -43.898438 4.09375 -46.890625 C 3.207031 -49.890625 2.46875 -52.890625 1.875 -55.890625 C 1.28125 -58.890625 0.984375 -61.640625 0.984375 -64.140625 C 0.984375 -65.328125 1.113281 -66.628906 1.375 -68.046875 C 1.644531 -69.460938 2.09375 -70.78125 2.71875 -72 C 3.34375 -73.21875 4.164062 -74.238281 5.1875 -75.0625 C 6.207031 -75.882812 7.476562 -76.296875 9 -76.296875 C 10.707031 -76.296875 12.21875 -75.648438 13.53125 -74.359375 C 14.851562 -73.078125 16.023438 -71.445312 17.046875 -69.46875 C 18.066406 -67.5 18.9375 -65.296875 19.65625 -62.859375 C 20.382812 -60.421875 21.007812 -58.015625 21.53125 -55.640625 C 22.0625 -53.265625 22.492188 -51.085938 22.828125 -49.109375 C 23.160156 -47.140625 23.457031 -45.59375 23.71875 -44.46875 C 23.976562 -45.457031 24.421875 -46.957031 25.046875 -48.96875 C 25.679688 -50.976562 26.441406 -53.203125 27.328125 -55.640625 C 28.210938 -58.078125 29.234375 -60.578125 30.390625 -63.140625 C 31.546875 -65.710938 32.765625 -68.050781 34.046875 -70.15625 C 35.328125 -72.269531 36.691406 -74.003906 38.140625 -75.359375 C 39.597656 -76.710938 41.082031 -77.390625 42.59375 -77.390625 C 43.582031 -77.390625 44.40625 -77.023438 45.0625 -76.296875 C 45.726562 -75.566406 46.238281 -74.707031 46.59375 -73.71875 C 46.957031 -72.738281 47.203125 -71.71875 47.328125 -70.65625 C 47.460938 -69.601562 47.53125 -68.71875 47.53125 -68 Z M 47.53125 -68 "/></g></g><g transform="translate(726.376688, 272.257692)"><g/></g><g transform="translate(750.194408, 272.257692)"><g><path d="M 21.453125 -41.40625 C 21.453125 -40.351562 21.382812 -38.921875 21.25 -37.109375 C 21.113281 -35.296875 20.914062 -33.351562 20.65625 -31.28125 C 20.394531 -29.207031 20.015625 -27.097656 19.515625 -24.953125 C 19.023438 -22.816406 18.445312 -20.875 17.78125 -19.125 C 17.125 -17.375 16.332031 -15.957031 15.40625 -14.875 C 14.488281 -13.789062 13.4375 -13.25 12.25 -13.25 C 10.800781 -13.25 9.566406 -13.957031 8.546875 -15.375 C 7.523438 -16.789062 6.664062 -18.597656 5.96875 -20.796875 C 5.28125 -23.003906 4.738281 -25.457031 4.34375 -28.15625 C 3.945312 -30.863281 3.648438 -33.519531 3.453125 -36.125 C 3.253906 -38.726562 3.140625 -41.128906 3.109375 -43.328125 C 3.078125 -45.535156 3.0625 -47.234375 3.0625 -48.421875 C 3.0625 -49.609375 3.0625 -51.109375 3.0625 -52.921875 C 3.0625 -54.734375 3.144531 -56.660156 3.3125 -58.703125 C 3.476562 -60.742188 3.738281 -62.769531 4.09375 -64.78125 C 4.457031 -66.789062 5 -68.617188 5.71875 -70.265625 C 6.445312 -71.910156 7.40625 -73.242188 8.59375 -74.265625 C 9.78125 -75.285156 11.265625 -75.796875 13.046875 -75.796875 C 14.628906 -75.796875 15.929688 -75.117188 16.953125 -73.765625 C 17.972656 -72.421875 18.796875 -70.675781 19.421875 -68.53125 C 20.046875 -66.394531 20.503906 -64.007812 20.796875 -61.375 C 21.097656 -58.738281 21.296875 -56.148438 21.390625 -53.609375 C 21.492188 -51.078125 21.53125 -48.722656 21.5 -46.546875 C 21.46875 -44.367188 21.453125 -42.65625 21.453125 -41.40625 Z M 19.5625 -3.859375 C 19.5625 -2.734375 19.296875 -1.757812 18.765625 -0.9375 C 18.242188 -0.113281 17.554688 0.578125 16.703125 1.140625 C 15.847656 1.703125 14.925781 2.113281 13.9375 2.375 C 12.945312 2.632812 11.957031 2.765625 10.96875 2.765625 C 9.519531 2.765625 8.132812 2.382812 6.8125 1.625 C 5.5 0.875 4.84375 -0.328125 4.84375 -1.984375 C 4.84375 -2.960938 5.117188 -3.863281 5.671875 -4.6875 C 6.234375 -5.519531 6.941406 -6.226562 7.796875 -6.8125 C 8.660156 -7.40625 9.601562 -7.867188 10.625 -8.203125 C 11.644531 -8.535156 12.617188 -8.703125 13.546875 -8.703125 C 15.054688 -8.703125 16.4375 -8.320312 17.6875 -7.5625 C 18.9375 -6.800781 19.5625 -5.566406 19.5625 -3.859375 Z M 19.5625 -3.859375 "/></g></g></g><g fill="#000000" fill-opacity="1"><g transform="translate(203.202163, 306.890788)"><g><path d="M 8.1875 -18.890625 C 9.1875 -18.890625 10.164062 -18.742188 11.125 -18.453125 C 12.082031 -18.160156 12.796875 -17.867188 13.265625 -17.578125 L 13.9375 -17.140625 L 12.234375 -13.765625 C 12.097656 -13.847656 11.910156 -13.960938 11.671875 -14.109375 C 11.429688 -14.253906 10.976562 -14.445312 10.3125 -14.6875 C 9.65625 -14.925781 9.046875 -15.046875 8.484375 -15.046875 C 7.773438 -15.046875 7.226562 -14.894531 6.84375 -14.59375 C 6.457031 -14.289062 6.265625 -13.882812 6.265625 -13.375 C 6.265625 -13.125 6.351562 -12.890625 6.53125 -12.671875 C 6.71875 -12.453125 7.023438 -12.21875 7.453125 -11.96875 C 7.890625 -11.726562 8.273438 -11.53125 8.609375 -11.375 C 8.941406 -11.226562 9.453125 -11.003906 10.140625 -10.703125 C 11.335938 -10.191406 12.359375 -9.5 13.203125 -8.625 C 14.054688 -7.75 14.484375 -6.753906 14.484375 -5.640625 C 14.484375 -4.578125 14.289062 -3.644531 13.90625 -2.84375 C 13.519531 -2.050781 12.992188 -1.429688 12.328125 -0.984375 C 11.660156 -0.535156 10.921875 -0.203125 10.109375 0.015625 C 9.304688 0.234375 8.429688 0.34375 7.484375 0.34375 C 6.671875 0.34375 5.875 0.257812 5.09375 0.09375 C 4.320312 -0.0703125 3.671875 -0.28125 3.140625 -0.53125 C 2.617188 -0.78125 2.148438 -1.023438 1.734375 -1.265625 C 1.316406 -1.503906 1.007812 -1.703125 0.8125 -1.859375 L 0.515625 -2.109375 L 2.625 -5.671875 C 2.8125 -5.515625 3.0625 -5.320312 3.375 -5.09375 C 3.6875 -4.863281 4.242188 -4.550781 5.046875 -4.15625 C 5.847656 -3.769531 6.554688 -3.578125 7.171875 -3.578125 C 8.953125 -3.578125 9.84375 -4.179688 9.84375 -5.390625 C 9.84375 -5.648438 9.78125 -5.890625 9.65625 -6.109375 C 9.53125 -6.328125 9.304688 -6.539062 8.984375 -6.75 C 8.660156 -6.96875 8.375 -7.140625 8.125 -7.265625 C 7.875 -7.398438 7.46875 -7.597656 6.90625 -7.859375 C 6.351562 -8.117188 5.941406 -8.316406 5.671875 -8.453125 C 4.546875 -9.003906 3.675781 -9.695312 3.0625 -10.53125 C 2.445312 -11.363281 2.140625 -12.257812 2.140625 -13.21875 C 2.140625 -14.882812 2.753906 -16.242188 3.984375 -17.296875 C 5.210938 -18.359375 6.613281 -18.890625 8.1875 -18.890625 Z M 8.1875 -18.890625 "/></g></g></g><g fill="#000000" fill-opacity="1"><g transform="translate(222.407779, 306.890788)"><g><path d="M 0.515625 -9.28125 C 0.515625 -11.96875 1.425781 -14.238281 3.25 -16.09375 C 5.082031 -17.957031 7.289062 -18.890625 9.875 -18.890625 C 12.46875 -18.890625 14.671875 -17.960938 16.484375 -16.109375 C 18.296875 -14.253906 19.203125 -11.976562 19.203125 -9.28125 C 19.203125 -6.570312 18.304688 -4.289062 16.515625 -2.4375 C 14.734375 -0.582031 12.519531 0.34375 9.875 0.34375 C 7.15625 0.34375 4.914062 -0.570312 3.15625 -2.40625 C 1.394531 -4.25 0.515625 -6.539062 0.515625 -9.28125 Z M 5.078125 -9.28125 C 5.078125 -8.3125 5.226562 -7.425781 5.53125 -6.625 C 5.832031 -5.820312 6.359375 -5.140625 7.109375 -4.578125 C 7.859375 -4.023438 8.78125 -3.75 9.875 -3.75 C 11.445312 -3.75 12.632812 -4.289062 13.4375 -5.375 C 14.238281 -6.457031 14.640625 -7.757812 14.640625 -9.28125 C 14.640625 -10.800781 14.226562 -12.101562 13.40625 -13.1875 C 12.59375 -14.269531 11.414062 -14.8125 9.875 -14.8125 C 8.34375 -14.8125 7.160156 -14.269531 6.328125 -13.1875 C 5.492188 -12.101562 5.078125 -10.800781 5.078125 -9.28125 Z M 5.078125 -9.28125 "/></g></g></g><g fill="#000000" fill-opacity="1"><g transform="translate(246.22364, 306.890788)"><g><path d="M 16.6875 0 L 15.8125 -11 L 15.6875 -11 L 11.890625 -0.109375 L 9.375 -0.109375 L 5.578125 -11 L 5.46875 -11 L 4.59375 0 L 0.359375 0 L 2.03125 -18.546875 L 6.515625 -18.546875 L 10.640625 -7.84375 L 14.75 -18.546875 L 19.25 -18.546875 L 20.90625 0 Z M 16.6875 0 "/></g></g></g><g fill="#000000" fill-opacity="1"><g transform="translate(271.591239, 306.890788)"><g><path d="M 11.96875 -18.546875 L 11.96875 -14.84375 L 5.578125 -14.84375 L 5.578125 -11.15625 L 11.6875 -11.15625 L 11.6875 -7.4375 L 5.578125 -7.4375 L 5.578125 -3.703125 L 11.96875 -3.703125 L 11.96875 0 L 1.34375 0 L 1.34375 -18.546875 Z M 11.96875 -18.546875 "/></g></g></g><g fill="#000000" fill-opacity="1"><g transform="translate(288.727858, 306.890788)"><g><path d="M 0.1875 -14.84375 L 0.1875 -18.546875 L 13.21875 -18.546875 L 13.21875 -14.84375 L 8.8125 -14.84375 L 8.8125 0 L 4.59375 0 L 4.59375 -14.84375 Z M 0.1875 -14.84375 "/></g></g></g><g fill="#000000" fill-opacity="1"><g transform="translate(306.224304, 306.890788)"><g><path d="M 5.578125 -7.4375 L 5.578125 0 L 1.34375 0 L 1.34375 -18.546875 L 5.578125 -18.546875 L 5.578125 -11.15625 L 11.5625 -11.15625 L 11.5625 -18.546875 L 15.78125 -18.546875 L 15.78125 0 L 11.5625 0 L 11.5625 -7.4375 Z M 5.578125 -7.4375 "/></g></g></g><g fill="#000000" fill-opacity="1"><g transform="translate(327.453925, 306.890788)"><g><path d="M 5.578125 -18.546875 L 5.578125 0 L 1.34375 0 L 1.34375 -18.546875 Z M 5.578125 -18.546875 "/></g></g></g><g fill="#000000" fill-opacity="1"><g transform="translate(338.473544, 306.890788)"><g><path d="M 5.578125 -11.515625 L 5.578125 0 L 1.34375 0 L 1.34375 -18.546875 L 5.578125 -18.546875 L 12.953125 -7.03125 L 13 -7.03125 L 13 -18.546875 L 17.21875 -18.546875 L 17.21875 0 L 13 0 L 5.625 -11.515625 Z M 5.578125 -11.515625 "/></g></g></g><g fill="#000000" fill-opacity="1"><g transform="translate(361.142461, 306.890788)"><g><path d="M 18.125 -10.390625 L 18.125 -6.359375 C 17.644531 -4.160156 16.59375 -2.492188 14.96875 -1.359375 C 13.351562 -0.222656 11.550781 0.34375 9.5625 0.34375 C 7.050781 0.34375 4.914062 -0.59375 3.15625 -2.46875 C 1.394531 -4.34375 0.515625 -6.609375 0.515625 -9.265625 C 0.515625 -11.960938 1.375 -14.238281 3.09375 -16.09375 C 4.820312 -17.957031 6.976562 -18.890625 9.5625 -18.890625 C 12.570312 -18.890625 14.953125 -17.832031 16.703125 -15.71875 L 13.9375 -12.6875 C 12.945312 -14.269531 11.566406 -15.0625 9.796875 -15.0625 C 8.492188 -15.0625 7.378906 -14.492188 6.453125 -13.359375 C 5.535156 -12.234375 5.078125 -10.867188 5.078125 -9.265625 C 5.078125 -7.691406 5.535156 -6.34375 6.453125 -5.21875 C 7.378906 -4.101562 8.492188 -3.546875 9.796875 -3.546875 C 10.878906 -3.546875 11.820312 -3.875 12.625 -4.53125 C 13.425781 -5.1875 13.828125 -6.050781 13.828125 -7.125 L 9.5625 -7.125 L 9.5625 -10.390625 Z M 18.125 -10.390625 "/></g></g></g><g fill="#000000" fill-opacity="1"><g transform="translate(383.878854, 306.890788)"><g/></g></g><g fill="#000000" fill-opacity="1"><g transform="translate(394.111355, 306.890788)"><g><path d="M 10.765625 -18.546875 L 18.25 0 L 13.71875 0 L 12.34375 -3.703125 L 5.28125 -3.703125 L 3.90625 0 L -0.625 0 L 6.859375 -18.546875 Z M 10.90625 -7.421875 L 8.84375 -12.8125 L 8.796875 -12.8125 L 6.71875 -7.421875 Z M 10.90625 -7.421875 "/></g></g></g><g fill="#000000" fill-opacity="1"><g transform="translate(415.835737, 306.890788)"><g><path d="M 15.578125 0 L 12.609375 -10.40625 L 9.640625 0 L 4.953125 0 L -0.34375 -18.546875 L 4.359375 -18.546875 L 7.53125 -5.828125 L 7.640625 -5.828125 L 11.015625 -18.546875 L 14.203125 -18.546875 L 17.578125 -5.828125 L 17.6875 -5.828125 L 20.859375 -18.546875 L 25.546875 -18.546875 L 20.265625 0 Z M 15.578125 0 "/></g></g></g><g fill="#000000" fill-opacity="1"><g transform="translate(445.138909, 306.890788)"><g><path d="M 11.96875 -18.546875 L 11.96875 -14.84375 L 5.578125 -14.84375 L 5.578125 -11.15625 L 11.6875 -11.15625 L 11.6875 -7.4375 L 5.578125 -7.4375 L 5.578125 -3.703125 L 11.96875 -3.703125 L 11.96875 0 L 1.34375 0 L 1.34375 -18.546875 Z M 11.96875 -18.546875 "/></g></g></g><g fill="#000000" fill-opacity="1"><g transform="translate(462.275533, 306.890788)"><g><path d="M 8.1875 -18.890625 C 9.1875 -18.890625 10.164062 -18.742188 11.125 -18.453125 C 12.082031 -18.160156 12.796875 -17.867188 13.265625 -17.578125 L 13.9375 -17.140625 L 12.234375 -13.765625 C 12.097656 -13.847656 11.910156 -13.960938 11.671875 -14.109375 C 11.429688 -14.253906 10.976562 -14.445312 10.3125 -14.6875 C 9.65625 -14.925781 9.046875 -15.046875 8.484375 -15.046875 C 7.773438 -15.046875 7.226562 -14.894531 6.84375 -14.59375 C 6.457031 -14.289062 6.265625 -13.882812 6.265625 -13.375 C 6.265625 -13.125 6.351562 -12.890625 6.53125 -12.671875 C 6.71875 -12.453125 7.023438 -12.21875 7.453125 -11.96875 C 7.890625 -11.726562 8.273438 -11.53125 8.609375 -11.375 C 8.941406 -11.226562 9.453125 -11.003906 10.140625 -10.703125 C 11.335938 -10.191406 12.359375 -9.5 13.203125 -8.625 C 14.054688 -7.75 14.484375 -6.753906 14.484375 -5.640625 C 14.484375 -4.578125 14.289062 -3.644531 13.90625 -2.84375 C 13.519531 -2.050781 12.992188 -1.429688 12.328125 -0.984375 C 11.660156 -0.535156 10.921875 -0.203125 10.109375 0.015625 C 9.304688 0.234375 8.429688 0.34375 7.484375 0.34375 C 6.671875 0.34375 5.875 0.257812 5.09375 0.09375 C 4.320312 -0.0703125 3.671875 -0.28125 3.140625 -0.53125 C 2.617188 -0.78125 2.148438 -1.023438 1.734375 -1.265625 C 1.316406 -1.503906 1.007812 -1.703125 0.8125 -1.859375 L 0.515625 -2.109375 L 2.625 -5.671875 C 2.8125 -5.515625 3.0625 -5.320312 3.375 -5.09375 C 3.6875 -4.863281 4.242188 -4.550781 5.046875 -4.15625 C 5.847656 -3.769531 6.554688 -3.578125 7.171875 -3.578125 C 8.953125 -3.578125 9.84375 -4.179688 9.84375 -5.390625 C 9.84375 -5.648438 9.78125 -5.890625 9.65625 -6.109375 C 9.53125 -6.328125 9.304688 -6.539062 8.984375 -6.75 C 8.660156 -6.96875 8.375 -7.140625 8.125 -7.265625 C 7.875 -7.398438 7.46875 -7.597656 6.90625 -7.859375 C 6.351562 -8.117188 5.941406 -8.316406 5.671875 -8.453125 C 4.546875 -9.003906 3.675781 -9.695312 3.0625 -10.53125 C 2.445312 -11.363281 2.140625 -12.257812 2.140625 -13.21875 C 2.140625 -14.882812 2.753906 -16.242188 3.984375 -17.296875 C 5.210938 -18.359375 6.613281 -18.890625 8.1875 -18.890625 Z M 8.1875 -18.890625 "/></g></g></g><g fill="#000000" fill-opacity="1"><g transform="translate(481.481156, 306.890788)"><g><path d="M 0.515625 -9.28125 C 0.515625 -11.96875 1.425781 -14.238281 3.25 -16.09375 C 5.082031 -17.957031 7.289062 -18.890625 9.875 -18.890625 C 12.46875 -18.890625 14.671875 -17.960938 16.484375 -16.109375 C 18.296875 -14.253906 19.203125 -11.976562 19.203125 -9.28125 C 19.203125 -6.570312 18.304688 -4.289062 16.515625 -2.4375 C 14.734375 -0.582031 12.519531 0.34375 9.875 0.34375 C 7.15625 0.34375 4.914062 -0.570312 3.15625 -2.40625 C 1.394531 -4.25 0.515625 -6.539062 0.515625 -9.28125 Z M 5.078125 -9.28125 C 5.078125 -8.3125 5.226562 -7.425781 5.53125 -6.625 C 5.832031 -5.820312 6.359375 -5.140625 7.109375 -4.578125 C 7.859375 -4.023438 8.78125 -3.75 9.875 -3.75 C 11.445312 -3.75 12.632812 -4.289062 13.4375 -5.375 C 14.238281 -6.457031 14.640625 -7.757812 14.640625 -9.28125 C 14.640625 -10.800781 14.226562 -12.101562 13.40625 -13.1875 C 12.59375 -14.269531 11.414062 -14.8125 9.875 -14.8125 C 8.34375 -14.8125 7.160156 -14.269531 6.328125 -13.1875 C 5.492188 -12.101562 5.078125 -10.800781 5.078125 -9.28125 Z M 5.078125 -9.28125 "/></g></g></g><g fill="#000000" fill-opacity="1"><g transform="translate(505.297023, 306.890788)"><g><path d="M 16.6875 0 L 15.8125 -11 L 15.6875 -11 L 11.890625 -0.109375 L 9.375 -0.109375 L 5.578125 -11 L 5.46875 -11 L 4.59375 0 L 0.359375 0 L 2.03125 -18.546875 L 6.515625 -18.546875 L 10.640625 -7.84375 L 14.75 -18.546875 L 19.25 -18.546875 L 20.90625 0 Z M 16.6875 0 "/></g></g></g><g fill="#000000" fill-opacity="1"><g transform="translate(530.664616, 306.890788)"><g><path d="M 11.96875 -18.546875 L 11.96875 -14.84375 L 5.578125 -14.84375 L 5.578125 -11.15625 L 11.6875 -11.15625 L 11.6875 -7.4375 L 5.578125 -7.4375 L 5.578125 -3.703125 L 11.96875 -3.703125 L 11.96875 0 L 1.34375 0 L 1.34375 -18.546875 Z M 11.96875 -18.546875 "/></g></g></g><g fill="#000000" fill-opacity="1"><g transform="translate(547.801241, 306.890788)"><g/></g></g><g fill="#000000" fill-opacity="1"><g transform="translate(558.033742, 306.890788)"><g><path d="M 5.578125 -18.546875 L 5.578125 0 L 1.34375 0 L 1.34375 -18.546875 Z M 5.578125 -18.546875 "/></g></g></g><g fill="#000000" fill-opacity="1"><g transform="translate(569.05335, 306.890788)"><g><path d="M 8.1875 -18.890625 C 9.1875 -18.890625 10.164062 -18.742188 11.125 -18.453125 C 12.082031 -18.160156 12.796875 -17.867188 13.265625 -17.578125 L 13.9375 -17.140625 L 12.234375 -13.765625 C 12.097656 -13.847656 11.910156 -13.960938 11.671875 -14.109375 C 11.429688 -14.253906 10.976562 -14.445312 10.3125 -14.6875 C 9.65625 -14.925781 9.046875 -15.046875 8.484375 -15.046875 C 7.773438 -15.046875 7.226562 -14.894531 6.84375 -14.59375 C 6.457031 -14.289062 6.265625 -13.882812 6.265625 -13.375 C 6.265625 -13.125 6.351562 -12.890625 6.53125 -12.671875 C 6.71875 -12.453125 7.023438 -12.21875 7.453125 -11.96875 C 7.890625 -11.726562 8.273438 -11.53125 8.609375 -11.375 C 8.941406 -11.226562 9.453125 -11.003906 10.140625 -10.703125 C 11.335938 -10.191406 12.359375 -9.5 13.203125 -8.625 C 14.054688 -7.75 14.484375 -6.753906 14.484375 -5.640625 C 14.484375 -4.578125 14.289062 -3.644531 13.90625 -2.84375 C 13.519531 -2.050781 12.992188 -1.429688 12.328125 -0.984375 C 11.660156 -0.535156 10.921875 -0.203125 10.109375 0.015625 C 9.304688 0.234375 8.429688 0.34375 7.484375 0.34375 C 6.671875 0.34375 5.875 0.257812 5.09375 0.09375 C 4.320312 -0.0703125 3.671875 -0.28125 3.140625 -0.53125 C 2.617188 -0.78125 2.148438 -1.023438 1.734375 -1.265625 C 1.316406 -1.503906 1.007812 -1.703125 0.8125 -1.859375 L 0.515625 -2.109375 L 2.625 -5.671875 C 2.8125 -5.515625 3.0625 -5.320312 3.375 -5.09375 C 3.6875 -4.863281 4.242188 -4.550781 5.046875 -4.15625 C 5.847656 -3.769531 6.554688 -3.578125 7.171875 -3.578125 C 8.953125 -3.578125 9.84375 -4.179688 9.84375 -5.390625 C 9.84375 -5.648438 9.78125 -5.890625 9.65625 -6.109375 C 9.53125 -6.328125 9.304688 -6.539062 8.984375 -6.75 C 8.660156 -6.96875 8.375 -7.140625 8.125 -7.265625 C 7.875 -7.398438 7.46875 -7.597656 6.90625 -7.859375 C 6.351562 -8.117188 5.941406 -8.316406 5.671875 -8.453125 C 4.546875 -9.003906 3.675781 -9.695312 3.0625 -10.53125 C 2.445312 -11.363281 2.140625 -12.257812 2.140625 -13.21875 C 2.140625 -14.882812 2.753906 -16.242188 3.984375 -17.296875 C 5.210938 -18.359375 6.613281 -18.890625 8.1875 -18.890625 Z M 8.1875 -18.890625 "/></g></g></g><g fill="#000000" fill-opacity="1"><g transform="translate(588.258972, 306.890788)"><g/></g></g><g fill="#000000" fill-opacity="1"><g transform="translate(598.49145, 306.890788)"><g><path d="M 11.21875 -3.828125 C 11.863281 -3.828125 12.488281 -3.921875 13.09375 -4.109375 C 13.695312 -4.304688 14.144531 -4.492188 14.4375 -4.671875 L 14.859375 -4.96875 L 16.65625 -1.375 C 16.601562 -1.320312 16.519531 -1.257812 16.40625 -1.1875 C 16.300781 -1.113281 16.054688 -0.972656 15.671875 -0.765625 C 15.296875 -0.566406 14.890625 -0.390625 14.453125 -0.234375 C 14.023438 -0.0859375 13.457031 0.0390625 12.75 0.15625 C 12.039062 0.28125 11.3125 0.34375 10.5625 0.34375 C 8.84375 0.34375 7.207031 -0.078125 5.65625 -0.921875 C 4.113281 -1.773438 2.867188 -2.941406 1.921875 -4.421875 C 0.984375 -5.910156 0.515625 -7.515625 0.515625 -9.234375 C 0.515625 -10.546875 0.789062 -11.800781 1.34375 -13 C 1.90625 -14.195312 2.644531 -15.222656 3.5625 -16.078125 C 4.488281 -16.929688 5.566406 -17.613281 6.796875 -18.125 C 8.023438 -18.632812 9.28125 -18.890625 10.5625 -18.890625 C 11.757812 -18.890625 12.863281 -18.742188 13.875 -18.453125 C 14.894531 -18.171875 15.613281 -17.890625 16.03125 -17.609375 L 16.65625 -17.171875 L 14.859375 -13.578125 C 14.753906 -13.671875 14.597656 -13.78125 14.390625 -13.90625 C 14.179688 -14.03125 13.757812 -14.195312 13.125 -14.40625 C 12.5 -14.625 11.863281 -14.734375 11.21875 -14.734375 C 10.195312 -14.734375 9.28125 -14.566406 8.46875 -14.234375 C 7.664062 -13.898438 7.023438 -13.460938 6.546875 -12.921875 C 6.078125 -12.390625 5.71875 -11.8125 5.46875 -11.1875 C 5.226562 -10.5625 5.109375 -9.925781 5.109375 -9.28125 C 5.109375 -7.875 5.632812 -6.613281 6.6875 -5.5 C 7.75 -4.382812 9.257812 -3.828125 11.21875 -3.828125 Z M 11.21875 -3.828125 "/></g></g></g><g fill="#000000" fill-opacity="1"><g transform="translate(619.518678, 306.890788)"><g><path d="M 0.515625 -9.28125 C 0.515625 -11.96875 1.425781 -14.238281 3.25 -16.09375 C 5.082031 -17.957031 7.289062 -18.890625 9.875 -18.890625 C 12.46875 -18.890625 14.671875 -17.960938 16.484375 -16.109375 C 18.296875 -14.253906 19.203125 -11.976562 19.203125 -9.28125 C 19.203125 -6.570312 18.304688 -4.289062 16.515625 -2.4375 C 14.734375 -0.582031 12.519531 0.34375 9.875 0.34375 C 7.15625 0.34375 4.914062 -0.570312 3.15625 -2.40625 C 1.394531 -4.25 0.515625 -6.539062 0.515625 -9.28125 Z M 5.078125 -9.28125 C 5.078125 -8.3125 5.226562 -7.425781 5.53125 -6.625 C 5.832031 -5.820312 6.359375 -5.140625 7.109375 -4.578125 C 7.859375 -4.023438 8.78125 -3.75 9.875 -3.75 C 11.445312 -3.75 12.632812 -4.289062 13.4375 -5.375 C 14.238281 -6.457031 14.640625 -7.757812 14.640625 -9.28125 C 14.640625 -10.800781 14.226562 -12.101562 13.40625 -13.1875 C 12.59375 -14.269531 11.414062 -14.8125 9.875 -14.8125 C 8.34375 -14.8125 7.160156 -14.269531 6.328125 -13.1875 C 5.492188 -12.101562 5.078125 -10.800781 5.078125 -9.28125 Z M 5.078125 -9.28125 "/></g></g></g><g fill="#000000" fill-opacity="1"><g transform="translate(643.334523, 306.890788)"><g><path d="M 16.6875 0 L 15.8125 -11 L 15.6875 -11 L 11.890625 -0.109375 L 9.375 -0.109375 L 5.578125 -11 L 5.46875 -11 L 4.59375 0 L 0.359375 0 L 2.03125 -18.546875 L 6.515625 -18.546875 L 10.640625 -7.84375 L 14.75 -18.546875 L 19.25 -18.546875 L 20.90625 0 Z M 16.6875 0 "/></g></g></g><g fill="#000000" fill-opacity="1"><g transform="translate(668.702116, 306.890788)"><g><path d="M 5.578125 -18.546875 L 5.578125 0 L 1.34375 0 L 1.34375 -18.546875 Z M 5.578125 -18.546875 "/></g></g></g><g fill="#000000" fill-opacity="1"><g transform="translate(679.721746, 306.890788)"><g><path d="M 5.578125 -11.515625 L 5.578125 0 L 1.34375 0 L 1.34375 -18.546875 L 5.578125 -18.546875 L 12.953125 -7.03125 L 13 -7.03125 L 13 -18.546875 L 17.21875 -18.546875 L 17.21875 0 L 13 0 L 5.625 -11.515625 Z M 5.578125 -11.515625 "/></g></g></g><g fill="#000000" fill-opacity="1"><g transform="translate(702.390674, 306.890788)"><g><path d="M 18.125 -10.390625 L 18.125 -6.359375 C 17.644531 -4.160156 16.59375 -2.492188 14.96875 -1.359375 C 13.351562 -0.222656 11.550781 0.34375 9.5625 0.34375 C 7.050781 0.34375 4.914062 -0.59375 3.15625 -2.46875 C 1.394531 -4.34375 0.515625 -6.609375 0.515625 -9.265625 C 0.515625 -11.960938 1.375 -14.238281 3.09375 -16.09375 C 4.820312 -17.957031 6.976562 -18.890625 9.5625 -18.890625 C 12.570312 -18.890625 14.953125 -17.832031 16.703125 -15.71875 L 13.9375 -12.6875 C 12.945312 -14.269531 11.566406 -15.0625 9.796875 -15.0625 C 8.492188 -15.0625 7.378906 -14.492188 6.453125 -13.359375 C 5.535156 -12.234375 5.078125 -10.867188 5.078125 -9.265625 C 5.078125 -7.691406 5.535156 -6.34375 6.453125 -5.21875 C 7.378906 -4.101562 8.492188 -3.546875 9.796875 -3.546875 C 10.878906 -3.546875 11.820312 -3.875 12.625 -4.53125 C 13.425781 -5.1875 13.828125 -6.050781 13.828125 -7.125 L 9.5625 -7.125 L 9.5625 -10.390625 Z M 18.125 -10.390625 "/></g></g></g><g fill="#000000" fill-opacity="1"><g transform="translate(725.127044, 306.890788)"><g/></g></g><g fill="#000000" fill-opacity="1"><g transform="translate(735.359522, 306.890788)"><g><path d="M 8.1875 -18.890625 C 9.1875 -18.890625 10.164062 -18.742188 11.125 -18.453125 C 12.082031 -18.160156 12.796875 -17.867188 13.265625 -17.578125 L 13.9375 -17.140625 L 12.234375 -13.765625 C 12.097656 -13.847656 11.910156 -13.960938 11.671875 -14.109375 C 11.429688 -14.253906 10.976562 -14.445312 10.3125 -14.6875 C 9.65625 -14.925781 9.046875 -15.046875 8.484375 -15.046875 C 7.773438 -15.046875 7.226562 -14.894531 6.84375 -14.59375 C 6.457031 -14.289062 6.265625 -13.882812 6.265625 -13.375 C 6.265625 -13.125 6.351562 -12.890625 6.53125 -12.671875 C 6.71875 -12.453125 7.023438 -12.21875 7.453125 -11.96875 C 7.890625 -11.726562 8.273438 -11.53125 8.609375 -11.375 C 8.941406 -11.226562 9.453125 -11.003906 10.140625 -10.703125 C 11.335938 -10.191406 12.359375 -9.5 13.203125 -8.625 C 14.054688 -7.75 14.484375 -6.753906 14.484375 -5.640625 C 14.484375 -4.578125 14.289062 -3.644531 13.90625 -2.84375 C 13.519531 -2.050781 12.992188 -1.429688 12.328125 -0.984375 C 11.660156 -0.535156 10.921875 -0.203125 10.109375 0.015625 C 9.304688 0.234375 8.429688 0.34375 7.484375 0.34375 C 6.671875 0.34375 5.875 0.257812 5.09375 0.09375 C 4.320312 -0.0703125 3.671875 -0.28125 3.140625 -0.53125 C 2.617188 -0.78125 2.148438 -1.023438 1.734375 -1.265625 C 1.316406 -1.503906 1.007812 -1.703125 0.8125 -1.859375 L 0.515625 -2.109375 L 2.625 -5.671875 C 2.8125 -5.515625 3.0625 -5.320312 3.375 -5.09375 C 3.6875 -4.863281 4.242188 -4.550781 5.046875 -4.15625 C 5.847656 -3.769531 6.554688 -3.578125 7.171875 -3.578125 C 8.953125 -3.578125 9.84375 -4.179688 9.84375 -5.390625 C 9.84375 -5.648438 9.78125 -5.890625 9.65625 -6.109375 C 9.53125 -6.328125 9.304688 -6.539062 8.984375 -6.75 C 8.660156 -6.96875 8.375 -7.140625 8.125 -7.265625 C 7.875 -7.398438 7.46875 -7.597656 6.90625 -7.859375 C 6.351562 -8.117188 5.941406 -8.316406 5.671875 -8.453125 C 4.546875 -9.003906 3.675781 -9.695312 3.0625 -10.53125 C 2.445312 -11.363281 2.140625 -12.257812 2.140625 -13.21875 C 2.140625 -14.882812 2.753906 -16.242188 3.984375 -17.296875 C 5.210938 -18.359375 6.613281 -18.890625 8.1875 -18.890625 Z M 8.1875 -18.890625 "/></g></g></g><g fill="#000000" fill-opacity="1"><g transform="translate(754.565145, 306.890788)"><g><path d="M 0.515625 -9.28125 C 0.515625 -11.96875 1.425781 -14.238281 3.25 -16.09375 C 5.082031 -17.957031 7.289062 -18.890625 9.875 -18.890625 C 12.46875 -18.890625 14.671875 -17.960938 16.484375 -16.109375 C 18.296875 -14.253906 19.203125 -11.976562 19.203125 -9.28125 C 19.203125 -6.570312 18.304688 -4.289062 16.515625 -2.4375 C 14.734375 -0.582031 12.519531 0.34375 9.875 0.34375 C 7.15625 0.34375 4.914062 -0.570312 3.15625 -2.40625 C 1.394531 -4.25 0.515625 -6.539062 0.515625 -9.28125 Z M 5.078125 -9.28125 C 5.078125 -8.3125 5.226562 -7.425781 5.53125 -6.625 C 5.832031 -5.820312 6.359375 -5.140625 7.109375 -4.578125 C 7.859375 -4.023438 8.78125 -3.75 9.875 -3.75 C 11.445312 -3.75 12.632812 -4.289062 13.4375 -5.375 C 14.238281 -6.457031 14.640625 -7.757812 14.640625 -9.28125 C 14.640625 -10.800781 14.226562 -12.101562 13.40625 -13.1875 C 12.59375 -14.269531 11.414062 -14.8125 9.875 -14.8125 C 8.34375 -14.8125 7.160156 -14.269531 6.328125 -13.1875 C 5.492188 -12.101562 5.078125 -10.800781 5.078125 -9.28125 Z M 5.078125 -9.28125 "/></g></g></g><g fill="#000000" fill-opacity="1"><g transform="translate(778.380989, 306.890788)"><g><path d="M 0.515625 -9.28125 C 0.515625 -11.96875 1.425781 -14.238281 3.25 -16.09375 C 5.082031 -17.957031 7.289062 -18.890625 9.875 -18.890625 C 12.46875 -18.890625 14.671875 -17.960938 16.484375 -16.109375 C 18.296875 -14.253906 19.203125 -11.976562 19.203125 -9.28125 C 19.203125 -6.570312 18.304688 -4.289062 16.515625 -2.4375 C 14.734375 -0.582031 12.519531 0.34375 9.875 0.34375 C 7.15625 0.34375 4.914062 -0.570312 3.15625 -2.40625 C 1.394531 -4.25 0.515625 -6.539062 0.515625 -9.28125 Z M 5.078125 -9.28125 C 5.078125 -8.3125 5.226562 -7.425781 5.53125 -6.625 C 5.832031 -5.820312 6.359375 -5.140625 7.109375 -4.578125 C 7.859375 -4.023438 8.78125 -3.75 9.875 -3.75 C 11.445312 -3.75 12.632812 -4.289062 13.4375 -5.375 C 14.238281 -6.457031 14.640625 -7.757812 14.640625 -9.28125 C 14.640625 -10.800781 14.226562 -12.101562 13.40625 -13.1875 C 12.59375 -14.269531 11.414062 -14.8125 9.875 -14.8125 C 8.34375 -14.8125 7.160156 -14.269531 6.328125 -13.1875 C 5.492188 -12.101562 5.078125 -10.800781 5.078125 -9.28125 Z M 5.078125 -9.28125 "/></g></g></g><g fill="#000000" fill-opacity="1"><g transform="translate(802.196833, 306.890788)"><g><path d="M 5.578125 -11.515625 L 5.578125 0 L 1.34375 0 L 1.34375 -18.546875 L 5.578125 -18.546875 L 12.953125 -7.03125 L 13 -7.03125 L 13 -18.546875 L 17.21875 -18.546875 L 17.21875 0 L 13 0 L 5.625 -11.515625 Z M 5.578125 -11.515625 "/></g></g></g></svg>