<svg xmlns="http://www.w3.org/2000/svg" xmlns:xlink="http://www.w3.org/1999/xlink" width="1366" zoomAndPan="magnify" viewBox="0 0 1024.5 576" height="768" preserveAspectRatio="xMidYMid meet" version="1.0"><defs><clipPath id="a47f6a1e30"><path d="M 0 0.140625 L 1024 0.140625 L 1024 575.859375 L 0 575.859375 Z M 0 0.140625 " clip-rule="nonzero"/></clipPath></defs><g clip-path="url(#a47f6a1e30)"><path fill="#ffffff" d="M 0 0.140625 L 1024 0.140625 L 1024 575.859375 L 0 575.859375 Z M 0 0.140625 " fill-opacity="1" fill-rule="nonzero"/><path fill="#ffffff" d="M 0 0.140625 L 1024 0.140625 L 1024 575.859375 L 0 575.859375 Z M 0 0.140625 " fill-opacity="1" fill-rule="nonzero"/></g><path fill="#000000" d="M 722.246094 85.761719 C 701.765625 63.023438 669.640625 51.519531 639.527344 49.78125 C 598.300781 44.429688 602.179688 71.179688 590.402344 101.140625 C 589.0625 101.675781 587.992188 102.882812 587.457031 104.351562 C 584.644531 117.195312 572.0625 135.25 574.207031 147.554688 C 554.261719 195.976562 532.308594 244.128906 506.609375 289.875 C 499.382812 302.582031 492.15625 315.554688 488.003906 329.601562 C 486.265625 330.804688 484.660156 332.945312 484.660156 335.085938 C 487.46875 370.261719 490.546875 405.707031 499.25 439.949219 C 505.941406 451.320312 536.996094 429.652344 545.429688 424.96875 C 560.285156 415.339844 577.015625 408.382812 591.605469 398.484375 C 611.28125 389.257812 614.363281 363.84375 624.800781 346.722656 C 649.164062 293.484375 676.335938 240.117188 697.082031 185.675781 C 702.570312 176.714844 708.726562 166.953125 707.789062 155.984375 C 721.84375 136.589844 738.308594 108.367188 722.246094 85.761719 Z M 543.957031 238.242188 C 550.914062 223.796875 556.9375 209.085938 563.765625 194.503906 C 568.984375 181.261719 583.84375 161.199219 581.703125 147.421875 C 581.96875 147.15625 582.101562 146.886719 582.238281 146.484375 C 589.332031 149.5625 596.425781 152.371094 603.652344 155.046875 C 574.875 218.714844 545.828125 282.25 517.585938 346.1875 C 514.375 337.757812 506.609375 331.742188 497.777344 330 C 509.6875 297.898438 530.972656 270.078125 543.957031 238.242188 Z M 609.007812 157.1875 C 622.257812 162.269531 635.644531 167.085938 648.894531 172.035156 C 637.382812 203.601562 619.984375 232.492188 606.0625 262.988281 C 589.464844 295.089844 577.953125 329.734375 560.417969 361.167969 C 553.191406 347.523438 533.917969 342.84375 521.335938 351.9375 C 549.980469 286.796875 579.425781 221.925781 609.007812 157.1875 Z M 585.71875 391.53125 C 573.535156 398.753906 560.820312 405.171875 548.507812 412.128906 C 533.648438 402.898438 516.785156 396.480469 499.917969 392.199219 C 497.507812 374.542969 495.902344 356.753906 494.5625 338.828125 C 507.683594 340.300781 512.234375 354.078125 511.027344 365.582031 C 510.761719 370.128906 517.71875 372.136719 519.726562 367.988281 C 521.734375 363.707031 525.082031 359.828125 529.632812 357.957031 C 538.734375 354.078125 549.84375 359.027344 553.457031 368.121094 C 555.332031 371.464844 553.859375 376.550781 557.339844 378.957031 C 559.617188 380.292969 562.027344 379.222656 563.765625 377.617188 C 576.882812 365.980469 585.851562 377.484375 586.117188 391.53125 C 585.851562 391.394531 585.71875 391.53125 585.71875 391.53125 Z M 685.570312 191.828125 C 655.453125 256.167969 629.21875 323.046875 594.683594 385.109375 C 593.480469 369.59375 577.953125 356.886719 563.632812 366.382812 C 579.695312 341.503906 587.726562 312.078125 601.511719 285.996094 C 617.976562 248.277344 639.527344 212.695312 654.117188 174.175781 C 665.359375 178.320312 676.199219 183.402344 687.175781 187.949219 C 687.175781 187.949219 687.175781 187.949219 687.175781 188.085938 C 686.640625 189.289062 686.105469 190.625 685.570312 191.828125 Z M 690.121094 179.390625 C 655.988281 163.207031 619.714844 152.640625 585.046875 137.660156 C 585.984375 134.847656 587.054688 132.039062 588.125 129.367188 C 626.542969 132.976562 660.808594 154.644531 694.804688 171.230469 C 693.332031 173.90625 691.726562 176.714844 690.121094 179.390625 Z M 698.152344 162.269531 C 664.019531 145.953125 630.023438 124.550781 591.605469 120.136719 C 592.8125 116.925781 594.148438 113.714844 595.21875 110.503906 C 608.875 115.320312 620.652344 124.28125 634.707031 128.429688 C 648.628906 133.78125 662.816406 138.726562 676.601562 144.480469 C 683.964844 149.160156 702.035156 149.964844 698.152344 162.269531 Z M 600.039062 102.078125 C 601.511719 98.066406 602.714844 93.917969 603.921875 89.773438 C 607.800781 79.875 609.273438 66.632812 618.242188 59.945312 C 638.589844 56.867188 660.140625 60.078125 679.28125 67.96875 C 723.449219 86.027344 730.945312 107.160156 703.105469 146.753906 C 670.175781 128.964844 632.832031 120.136719 600.039062 102.078125 Z M 485.996094 456.9375 C 470.070312 464.027344 453.335938 470.046875 438.210938 478.738281 C 407.425781 498.9375 364.460938 518.199219 380.65625 459.878906 C 364.863281 461.753906 352.011719 471.917969 337.554688 477.9375 C 253.765625 508.300781 356.027344 418.414062 269.558594 453.058594 C 265.277344 454.394531 259.386719 459.480469 256.039062 454.261719 C 254.835938 452.121094 255.371094 448.644531 257.78125 447.574219 C 288.164062 432.058594 332.066406 424.167969 311.992188 474.058594 C 329.125 479.273438 400.734375 423.230469 389.625 465.765625 C 375.835938 510.039062 415.191406 480.34375 433.660156 470.3125 C 448.785156 461.753906 465.25 455.734375 481.046875 448.777344 C 486.53125 445.300781 491.484375 453.859375 485.996094 456.9375 Z M 485.996094 456.9375 " fill-opacity="1" fill-rule="nonzero"/></svg>