<svg xmlns="http://www.w3.org/2000/svg" xmlns:xlink="http://www.w3.org/1999/xlink" width="1366" zoomAndPan="magnify" viewBox="0 0 1024.5 576" height="768" preserveAspectRatio="xMidYMid meet" version="1.0"><defs><clipPath id="70b258f3aa"><path d="M 0 0.140625 L 1024 0.140625 L 1024 575.859375 L 0 575.859375 Z M 0 0.140625 " clip-rule="nonzero"/></clipPath><clipPath id="c318192ce6"><path d="M 350.824219 119 L 695 119 L 695 471.726562 L 350.824219 471.726562 Z M 350.824219 119 " clip-rule="nonzero"/></clipPath></defs><g clip-path="url(#70b258f3aa)"><path fill="#ffffff" d="M 0 0.140625 L 1024 0.140625 L 1024 575.859375 L 0 575.859375 Z M 0 0.140625 " fill-opacity="1" fill-rule="nonzero"/><path fill="#ffffff" d="M 0 0.140625 L 1024 0.140625 L 1024 575.859375 L 0 575.859375 Z M 0 0.140625 " fill-opacity="1" fill-rule="nonzero"/></g><path stroke-linecap="butt" transform="matrix(0.833324, 0, 0, 0.834215, 305.075024, 88.512084)" fill-opacity="1" fill="#f5d7c4" fill-rule="nonzero" stroke-linejoin="miter" d="M 69.66074 400.417953 C 70.870129 378.391266 76.621755 356.622119 86.451551 336.861783 C 88.040631 333.658923 89.901589 330.338999 93.009436 328.578362 C 98.301682 325.581534 105.361135 328.419156 109.068988 333.251541 C 112.772154 338.079244 113.958105 344.321075 115.031554 350.300684 C 125.348855 346.039569 138.038058 348.310603 146.250649 355.868229 C 154.458552 363.430538 151.758522 371.278482 148.360047 381.921904 C 153.1601 377.187852 168.099327 383.729366 171.811868 389.339054 C 175.529097 394.958107 174.638462 402.707717 171.141549 408.457882 C 167.639947 414.208046 161.94926 418.281859 156.117945 421.639243 C 144.652194 428.26036 131.958303 432.76965 118.889409 434.890843 C 115.261244 435.480843 111.328388 435.841399 108.079915 434.108858 C 101.029837 430.35814 101.728282 420.281305 99.150129 412.718997 C 95.278211 401.391923 80.990553 394.939377 69.66074 400.417953 Z M 69.66074 400.417953 " stroke="#000000" stroke-width="1" stroke-opacity="1" stroke-miterlimit="10"/><path fill="#f1c22a" d="M 381.441406 356.046875 C 437.066406 291.675781 493.113281 226.882812 559.773438 174.050781 C 564.457031 170.339844 569.554688 166.535156 575.515625 166.042969 C 583.722656 165.367188 590.9375 171.066406 597.195312 176.4375 C 611.90625 189.070312 626.613281 201.691406 641.320312 214.320312 C 646.722656 218.949219 652.65625 224.972656 651.429688 231.980469 C 650.695312 236.175781 647.503906 239.453125 644.472656 242.441406 C 583.320312 302.480469 519.613281 359.832031 457.140625 418.535156 C 455.980469 419.703125 454.824219 420.863281 453.722656 422.089844 C 453.890625 419.902344 454.808594 417.777344 456.289062 416.160156 C 455.480469 417.460938 454.683594 418.769531 453.875 420.070312 C 448.875 416.699219 443.875 413.332031 438.867188 409.953125 C 435.707031 407.824219 432.433594 405.5625 430.640625 402.195312 C 428.632812 398.40625 428.574219 393.367188 425.183594 390.757812 " fill-opacity="1" fill-rule="nonzero"/><path fill="#424454" d="M 357.832031 463.785156 C 355.082031 448.710938 357.042969 432.808594 363.375 418.851562 C 371.125 421.621094 378.617188 425.925781 383.433594 432.609375 C 388.25 439.292969 389.882812 448.660156 385.972656 455.910156 " fill-opacity="1" fill-rule="nonzero"/><path stroke-linecap="butt" transform="matrix(0.833324, 0, 0, 0.834215, 305.075024, 88.512084)" fill-opacity="1" fill="#c4d5f5" fill-rule="nonzero" stroke-linejoin="miter" d="M 423.50996 169.428054 C 388.039256 144.559063 358.690495 115.091813 330.729248 82.000274 C 328.81204 79.72924 327.780778 72.508757 329.449547 70.059787 C 330.851125 67.999467 332.740208 77.411381 331.769885 75.112252 C 325.512003 60.160889 357.368605 84.098054 366.031201 94.629095 C 374.689109 105.160137 384.879846 113.738558 393.720569 124.110393 C 401.150338 132.819925 409.920748 140.382234 419.628667 146.441446 C 423.017767 148.557956 426.641245 150.599545 428.938145 153.867961 C 431.239733 157.141059 431.731926 162.109238 423.50996 169.428054 Z M 423.50996 169.428054 " stroke="#000000" stroke-width="1" stroke-opacity="1" stroke-miterlimit="10"/><path fill="#ed7994" d="M 591.855469 149.609375 C 614.828125 172.09375 637.804688 194.582031 660.78125 217.066406 C 661.371094 217.640625 662.046875 218.25 662.863281 218.257812 C 663.671875 218.257812 664.335938 217.664062 664.929688 217.105469 C 673.644531 208.832031 682.652344 200.011719 686.269531 188.550781 C 690.511719 175.113281 686.335938 159.9375 677.679688 148.824219 C 669.019531 137.714844 656.386719 130.265625 643.179688 125.382812 C 635.5625 122.574219 627.214844 120.519531 619.386719 122.691406 C 613.648438 124.285156 608.761719 128.003906 604.222656 131.867188 C 599.222656 136.128906 594.28125 140.933594 591.855469 149.609375 Z M 591.855469 149.609375 " fill-opacity="1" fill-rule="nonzero"/><g clip-path="url(#c318192ce6)"><path fill="#000000" d="M 368.984375 469.875 C 365.648438 470.457031 362.757812 471.117188 359.839844 471.242188 C 354.097656 471.492188 350.839844 468.148438 350.941406 461.40625 C 351.089844 450.738281 352.515625 440.140625 354.464844 429.679688 C 358.28125 409.132812 363.90625 389.011719 371.066406 369.390625 C 374.140625 360.957031 379.714844 353.667969 385.539062 346.953125 C 393.78125 337.449219 401.855469 327.796875 410.222656 318.386719 C 426.765625 299.800781 443.816406 281.714844 461.03125 263.78125 C 482.082031 241.859375 504.148438 220.933594 526.464844 200.339844 C 541.65625 186.316406 556.480469 171.800781 573.0625 159.320312 C 574.6875 158.09375 574.332031 156.535156 574.097656 154.824219 C 573.128906 147.75 577.773438 141.703125 584.820312 142.378906 C 590.539062 142.929688 593.296875 139.933594 596.648438 136.589844 C 600.855469 132.382812 604.046875 127.0625 609.488281 124.191406 C 622.429688 117.359375 635.671875 118.417969 648.894531 123.171875 C 659.9375 127.144531 670.1875 132.433594 678.355469 141.242188 C 697.261719 161.65625 700.164062 180.09375 683.679688 203.75 C 680.777344 207.914062 677.429688 211.652344 673.480469 214.9375 C 670.28125 217.597656 667.394531 220.144531 667.585938 225.625 C 667.820312 232.304688 660.238281 235.800781 652.78125 233.683594 C 633.570312 255.4375 611.289062 273.925781 590.511719 293.980469 C 576.070312 307.910156 561.980469 322.21875 547.480469 336.082031 C 525.796875 356.804688 504.613281 378.027344 483.65625 399.464844 C 473.964844 409.375 463.40625 418.410156 454.832031 429.496094 C 449.847656 435.9375 442.398438 440.21875 435.082031 443.8125 C 424.289062 449.117188 413.222656 453.863281 402.03125 458.34375 C 391.300781 462.625 380.234375 465.792969 368.984375 469.875 Z M 591.78125 236.492188 C 602.429688 226.742188 613.070312 216.988281 624.15625 206.835938 C 617.253906 200.582031 610.53125 194.484375 603.4375 188.042969 C 536.890625 248.53125 471.65625 309.703125 410.132812 376.660156 C 423.132812 377.074219 429.015625 384.941406 434.230469 393.953125 C 454.433594 372.253906 474.773438 351.707031 495.191406 331.234375 C 526.855469 299.492188 558.171875 267.382812 591.78125 236.492188 Z M 505.730469 270.113281 C 522.5625 254.164062 539.265625 238.078125 556.253906 222.304688 C 570.121094 209.429688 584.3125 196.910156 597.246094 185.246094 C 591.339844 178.632812 585.613281 172.175781 579.8125 165.777344 C 578.105469 163.898438 576.664062 164.785156 575.238281 166.417969 C 564.773438 178.40625 552.8125 188.902344 541.324219 199.847656 C 523.40625 216.914062 505.105469 233.597656 487.363281 250.84375 C 471.398438 266.367188 455.78125 282.265625 440.324219 298.308594 C 421.980469 317.335938 404.007812 336.722656 385.957031 357.261719 C 395 359.464844 401.273438 364.480469 405.507812 371.960938 C 415.339844 361.425781 424.765625 351.199219 434.332031 341.113281 C 457.257812 316.9375 481.113281 293.6875 505.730469 270.113281 Z M 591.457031 279.414062 C 609.546875 262.738281 627.644531 246.054688 646.90625 228.308594 C 642.253906 224.070312 637.230469 220.109375 633.003906 215.429688 C 630.011719 212.117188 628.179688 212.71875 625.421875 215.335938 C 605.453125 234.308594 585.214844 252.996094 565.421875 272.148438 C 529.664062 306.757812 495.257812 342.722656 460.390625 378.21875 C 452.699219 386.050781 444.972656 393.875 436.574219 402.144531 C 445.105469 404.964844 448.949219 412.070312 453.808594 418.5625 C 497.980469 370.242188 543.898438 324.570312 591.457031 279.414062 Z M 619.03125 166.195312 C 628.503906 175.796875 638.53125 184.855469 647.421875 195.050781 C 652.070312 200.378906 656.855469 205.59375 661.585938 210.851562 C 663.121094 212.550781 665.136719 214.636719 666.894531 211.800781 C 669.789062 207.136719 674.421875 204.226562 677.554688 199.738281 C 690.128906 181.71875 687.3125 162.480469 673.730469 146.972656 C 663.820312 135.660156 650.820312 129.988281 636.554688 126.636719 C 628.070312 124.640625 619.636719 126.058594 612.589844 130.257812 C 606.863281 133.660156 602.65625 139.648438 597.886719 144.605469 C 596.589844 145.957031 596.570312 147.742188 598.3125 148.902344 C 605.628906 153.773438 611.664062 160.171875 619.03125 166.195312 Z M 417.023438 441.578125 C 424.855469 438.125 432.699219 434.628906 439.921875 430.03125 C 442.523438 428.378906 447.757812 426.878906 445.539062 422.625 C 442.207031 416.207031 438.25 409.578125 429.28125 409.734375 C 425.480469 409.800781 423.449219 407.957031 423.882812 403.894531 C 424.058594 402.253906 423.992188 400.574219 424.023438 398.914062 C 424.191406 390.082031 415.941406 383.308594 407.464844 385.835938 C 403.03125 387.160156 400.808594 385.835938 399.398438 381.898438 C 398.714844 379.996094 398.074219 378.078125 397.347656 376.191406 C 395.066406 370.21875 386.722656 364.511719 380.949219 364.921875 C 375.597656 381.804688 371.03125 398.882812 366.699219 416.273438 C 384.449219 420.65625 394.25 431.933594 397.117188 449.335938 C 404.191406 448.050781 409.914062 444.1875 417.023438 441.578125 Z M 583.855469 159.261719 C 593.214844 168.019531 602.363281 177.023438 611.980469 185.488281 C 624.40625 196.433594 636.386719 207.789062 647.503906 220.066406 C 649.546875 222.320312 651.011719 225.207031 654.097656 226.550781 C 656.570312 227.632812 658.835938 227.984375 660.539062 225.671875 C 662.210938 223.40625 661.472656 221.378906 659.472656 219.367188 C 654.539062 214.410156 649.839844 209.207031 644.988281 204.160156 C 626.804688 185.246094 609.121094 165.820312 588.164062 149.792969 C 586.253906 148.332031 585.230469 148.367188 583.445312 149.519531 C 578.722656 152.597656 580.839844 155.582031 583.855469 159.261719 Z M 369.066406 425.601562 C 367.066406 424.425781 365.441406 423.941406 364.699219 427.035156 C 362.132812 437.757812 361.691406 448.742188 360.367188 459.621094 C 360.316406 460.054688 360.808594 460.554688 361.300781 461.507812 C 369.847656 460.648438 377.550781 456.691406 385.625 454.105469 C 388.007812 453.347656 387.609375 451.09375 387.257812 449.410156 C 385.089844 438.90625 380.015625 430.492188 369.066406 425.601562 Z M 369.066406 425.601562 " fill-opacity="1" fill-rule="nonzero"/></g></svg>